<svg id="レイヤー_1" data-name="レイヤー 1" xmlns="http://www.w3.org/2000/svg" viewBox="0 0 488 227"><defs><style>.cls-2{fill:#fff}.cls-3,.cls-4{fill:none}.cls-3{stroke:#231815;stroke-width:.28px}.cls-4{stroke:#d0121b;stroke-width:2.84px}.cls-5{fill:#231815}.cls-6{fill:#21b0b0}.cls-7,.cls-8{fill:#396b6e;stroke:#00babc;stroke-miterlimit:10;stroke-width:.5px}.cls-8{fill:#8f732c;stroke:#c69c6d}</style></defs><path fill="#29292e" d="M0 0h488v227H0z"/><path class="cls-2" d="M24.48 94.54h-4.83v-.75a11.83 11.83 0 01-1.46.75l-.56-1A9.37 9.37 0 0021.58 91h.9a9.88 9.88 0 004 2.55l-.57 1a14.29 14.29 0 01-1.4-.73zm1 .93v4h-6.9v-4zm-5.9.86v2.29h4.92v-2.29zm4.69-2.67A10.52 10.52 0 0122 91.84a9.6 9.6 0 01-2.14 1.82zm7.44 2h-1v-2.13a13.92 13.92 0 01-3.44 1.85l-.4-.88a11 11 0 002.34-1 4.76 4.76 0 001.57-1.28H26.9v-.89h8.68v.89h-3.52a2.66 2.66 0 01-.35.46zm2.94.3v3.5h-6.83V96zm-5.86 2.66h4.89v-1.8h-4.89zm3.79-6a9.15 9.15 0 003.06 1.82l-.49.88a9 9 0 01-3.24-2.1zm4.72 6.58l-.95-.53A15.06 15.06 0 0037.92 94h-1.44v-1h1.6c.08-.55.13-1.11.17-1.68l1.07.09c0 .53-.13 1.07-.21 1.59H40a1.83 1.83 0 011.37.44 3.12 3.12 0 01.5 2 6.13 6.13 0 01-.6 3 1.49 1.49 0 01-1.37.62 4.63 4.63 0 01-1-.12v-1a5.66 5.66 0 00.92.13c.57 0 .82-.33 1-.85a9.34 9.34 0 00.23-2c0-.73-.08-1.27-1-1.26H39a19.62 19.62 0 01-1.7 5.24zm6.7-2.67l-1 .15A5.8 5.8 0 0041.6 93l.71-.51A6.75 6.75 0 0144 96.53zm-1-5.19A7.59 7.59 0 0144.06 93l-.61.43a7.55 7.55 0 00-1.06-1.68zm1-.66a8.93 8.93 0 011.11 1.64l-.6.44a8 8 0 00-1.07-1.68zm6.57 1.77c-1.5 0-2.18.94-2.28 2.58a2.38 2.38 0 011.79-.79 2.15 2.15 0 012.26 2.3 2.4 2.4 0 01-2.53 2.51c-1.68 0-2.69-1.25-2.69-3.56 0-2.48 1.19-4 3.48-4a3.83 3.83 0 011.21.17l-.15 1a2.59 2.59 0 00-1.09-.21zm-2.29 3.44c.08 1.48.61 2.19 1.52 2.19a1.36 1.36 0 001.36-1.54 1.25 1.25 0 00-1.35-1.4 1.89 1.89 0 00-1.53.75zm13.9 2.86a.82.82 0 01-.87.92h-1.8l-.15-1h1.52c.21 0 .3-.11.3-.31v-1.73h-4.51a5.41 5.41 0 01-1.19 3L54.6 99a5.44 5.44 0 001.11-3.74v-3.87h6.47zm-5.46-5.26h4.46V92.3h-4.46zm0 2.23h4.46v-1.34h-4.46zm11.38-2.67a6.51 6.51 0 01-1.53 1.06l-.49-.84a8.54 8.54 0 002.25-1.65h.88v7.29H68.1zm12.77-1.6v8h-7.13v-8zm-1 3.47V92.4h-5.1v2.52zm-5.1 3.56h5.1v-2.62h-5.1zm9.63-6.83a20.47 20.47 0 00-.4 4.2 16.29 16.29 0 00.27 3.27l-1.09.08a19.85 19.85 0 01-.24-3.2 23.8 23.8 0 01.37-4.45zm2.36 4a2.21 2.21 0 00-.45 1.18c0 .87 1.16.87 1.78.87a18.87 18.87 0 002.13-.11v1.07c-.59.05-1.18.08-1.77.08-1.27 0-3.11-.09-3.11-1.79a3.14 3.14 0 01.48-1.56zm3.29-3.35v1h-4.42v-1zm9.22-.51l.73.42a10.15 10.15 0 01-1.24 1.3c.47.25.93.47 1.41.68l-.37.86c-.45-.21-.91-.43-1.34-.67V95h-1.19v1h2.57v.87h-2.57v1.48c0 .18.08.22.25.22h1.19c.39 0 .41-.26.45-1.11l.93.13a5.38 5.38 0 01-.28 1.51.72.72 0 01-.72.36h-1.93c-.43 0-.82-.1-.82-.62v-2H94.9a3.56 3.56 0 01-3 2.76l-.46-.93a3.36 3.36 0 001.7-.63A1.83 1.83 0 0094 96.9h-2.37V96h2.43v-1H93v-.55a13.07 13.07 0 01-1.23.65l-.45-.87a8.51 8.51 0 001.59-.74 13.6 13.6 0 00-1.09-.92l.53-.48h-.08v-.79h4a4.91 4.91 0 00.61.81A11.78 11.78 0 0097.94 91l.74.44a15 15 0 01-1.19 1.2c.19.15.34.26.54.39a10.71 10.71 0 001.24-1.24zm-4.6.29h-2.08a13.67 13.67 0 011.1.88 6.24 6.24 0 00.98-.88zm1 0a9.31 9.31 0 01-2.21 2H98a9.65 9.65 0 01-2.29-1.96zM95 95v1h1.36v-1zm8.57 1.77v1.74c.81-.14 1.61-.31 2.41-.49v.84a45.81 45.81 0 01-4.66.8l-.19-.87 1.52-.16v-1.32a13.25 13.25 0 01-1.8.72l-.37-.91a7.87 7.87 0 003.32-1.68h-3.2v-.81h3.89V94h-3.23v-.77h3.23v-.6h-3.68v-.81h3.68V91h.93v.75h3.65v.81h-3.65v.6h3.2V94h-3.2v.67h3.86v.81h-3.42a5 5 0 00.72 1.34 9.79 9.79 0 001.54-1.25l.69.68a16.38 16.38 0 01-1.66 1.25 5.58 5.58 0 002.22 1.44l-.55.84a6.79 6.79 0 01-3.82-4.25 7.78 7.78 0 01-1.43 1.24zm13.3-.68l-.91.58a10.76 10.76 0 01-1.6-2.84h-3.98v-1h3.67a13.56 13.56 0 01-.35-1.43l1.08-.09a10.53 10.53 0 00.32 1.48 17 17 0 002.66-.34l.2 1a15.57 15.57 0 01-2.53.29 8 8 0 001.44 2.35zm-4.15-.1a1.4 1.4 0 00-.91 1.13c0 1 1.44 1.09 2.61 1.09a18.71 18.71 0 002.49-.15v1c-.79.07-1.59.09-2.38.09a4.88 4.88 0 01-3.19-.76 1.67 1.67 0 01-.56-1.28 2.13 2.13 0 011.41-1.86zm6.82-2.15v-1h1.59v-1.4h1.07c-.06.67-.06 1.35-.07 2A4 4 0 01124.9 92a1.33 1.33 0 011.22.7 2.11 2.11 0 01.17.89v3.27c0 .69 0 1 1.18 1h.18l-.28 1a3.42 3.42 0 01-1.45-.26c-.66-.31-.7-1-.7-1.65s0-1 .07-1.53l.06-1.34v-.25c0-.25 0-.85-.63-.85-.9 0-2 1-2.49 1.7v4.47h-1v-3.08a9 9 0 01-1.24 1.77l-.56-1a7.88 7.88 0 001.82-2.45v-.64zm10.99 2.56a21.29 21.29 0 01-.91 2.94l-1.05-.34a20.65 20.65 0 001.52-5.48h-1.28v-1h1.41c0-.38.08-.77.11-1.16h1.09c0 .38-.09.75-.14 1.12h2.37v1h-2.51c-.14 1.01-.37 1.97-.61 2.92zm2.51.27a1.55 1.55 0 00-.29.76c0 .71 1 .76 2 .76.54 0 1.18 0 1.72-.08v1h-1.71a4.91 4.91 0 01-2.25-.35 1.39 1.39 0 01-.74-1.23 2.32 2.32 0 01.45-1.26zm2.7-2.84h.55v1h-1a6.75 6.75 0 00-2.48.39l-.35-.88a8.16 8.16 0 013.28-.51zm4.26-.93a8.26 8.26 0 00-.27 2.37 5.05 5.05 0 013-1 2.75 2.75 0 011.9.63 2.17 2.17 0 01.64 1.54 2.3 2.3 0 01-1.21 2.17 6.38 6.38 0 01-3 .59 12.87 12.87 0 01-1.75-.12l-.11-1a12 12 0 001.8.14 4.19 4.19 0 002.85-.79 1.46 1.46 0 00.33-1c0-.92-.73-1.28-1.56-1.28a3.85 3.85 0 00-2.9 1.23v.19h-1c0-.86 0-1.74.07-2.61a11.77 11.77 0 01.18-1.19zm4.12-1l-.23 1.1a11.94 11.94 0 00-3.8-.7l.19-1a15 15 0 013.88.61zm3.82 2.7a.76.76 0 11-.77.76.76.76 0 01.77-.76zm3.07 0a.76.76 0 11-.76.76.75.75 0 01.75-.76zm3.07 0a.76.76 0 110 1.51.76.76 0 110-1.51zM18 22l-.44-1.19A7.57 7.57 0 0018.94 17l.94.07a14.77 14.77 0 01-.53 2.35v6.24h-.9v-4.29c-.15.23-.32.45-.45.63zm5.2-2.66a10.68 10.68 0 01-.55 3.27 6.08 6.08 0 01-2.29 3l-.64-.76a5.18 5.18 0 001.92-2.15 10.15 10.15 0 00-1.13-1 5.69 5.69 0 01-.49.61l-.54-.91a5.26 5.26 0 001.24-3.27H20v-.89h3.29v.89h-1.72a8.37 8.37 0 01-.15 1.12zm-2.28 1.71a12.17 12.17 0 011.05.81 7.66 7.66 0 00.31-1.64H21.2a6.39 6.39 0 01-.31.87zm3.6-3.51v6.26h-.88v-6.22zm1.53-.54v7.82c0 .58-.21.84-.8.84h-1.14l-.19-.91h1c.23 0 .23-.05.23-.24V17zm4.51 1.72h1.36v1.47h-1.36zm0 3.81h1.36V24h-1.36zM41 17.34v.49c0 3.23 1.08 5.28 4 6.84l-.69 1a7.89 7.89 0 01-3.8-4.79 7.77 7.77 0 01-1.27 2.58 10.36 10.36 0 01-2.55 2.21l-.69-.95a7.5 7.5 0 003.07-2.89 6.93 6.93 0 00.91-3.5h-2.52v-1zm11.52 3.5a9.56 9.56 0 01-2.35 1.47v.08H54v.9h-3.83v1.65a.78.78 0 01-.76.77h-1.8l-.18-1h1.48c.25 0 .26-.12.26-.29v-1.13h-3.86v-.9h3.86v-.72h.41a4 4 0 001.36-.73h-4.1v-.86h5.68zm-6.32-3.46l.9-.34a5.47 5.47 0 01.69 1.39l-.21.08h1.84a7.15 7.15 0 00-.63-1.19l.92-.35a6.85 6.85 0 01.7 1.44l-.31.1h1.5a14 14 0 00.6-1.51l1.06.31a12.21 12.21 0 01-.6 1.2h1.17v2.11h-.93v-1.24h-6.41v1.24h-.93v-2.11h1.2a7.92 7.92 0 00-.56-1.13zm16.25.07v8h-7.13v-8zm-1 3.47V18.4h-5.1v2.52zm-5.1 3.56h5.1v-2.62h-5.1zm8.59.72l-1-.53A15.08 15.08 0 0065.56 20h-1.44v-1h1.6c.08-.55.13-1.11.16-1.68l1.08.09c0 .53-.13 1.07-.21 1.59h.89a1.84 1.84 0 011.36.5 3.12 3.12 0 01.49 2 6.24 6.24 0 01-.59 3 1.49 1.49 0 01-1.37.62 4.63 4.63 0 01-1-.12v-1a5.66 5.66 0 00.92.13c.57 0 .82-.33 1-.85a9.34 9.34 0 00.23-2c0-.73-.08-1.27-1-1.26h-1a19.59 19.59 0 01-1.74 5.18zm6.73-2.67l-1.07.15A5.8 5.8 0 0069.24 19l.71-.51a6.75 6.75 0 011.72 4.04zm-1.08-5.19A7.63 7.63 0 0171.7 19l-.61.43a7.55 7.55 0 00-1.09-1.7zm1.07-.66a8.93 8.93 0 011.11 1.64l-.6.44a8 8 0 00-1.07-1.68zm2.18.53h1v6.13c.68-.23 1.8-.67 2.47-1l.19.88a41.8 41.8 0 01-4.36 1.69L73 24l.86-.27zm4.6 2.79l-.88.62a11 11 0 00-1.76-2.5l.74-.56a10.62 10.62 0 011.9 2.44zm3.29 4.82l-.82.84a12 12 0 00-1.41-2 6.17 6.17 0 01-3.17 2l-.52-1a4.81 4.81 0 003.45-2.48 8 8 0 00.57-3.4v-1.51h1v1.65a8.88 8.88 0 01-.83 3.94 15.74 15.74 0 011.73 1.96zm9.1-7.5v1h-4v1.15a18.08 18.08 0 013.74 2.28l-.7 1a16.09 16.09 0 00-3-2.19v5.17h-1V18.3h-3.66v-1zm5.34 5.91h-3.41v-1l3.31-4.71h1.18v4.68h1v1h-1v1.68h-1.08zm0-1V18.9l-2.32 3.34zM108 17.45v8h-7.13v-8zm-1 3.47V18.4h-5.1v2.52zm-5.1 3.56h5.1v-2.62h-5.1zm7.91-6.08l-.2-.88a11.59 11.59 0 003-.47l.33.84a9.34 9.34 0 01-1 .27v1.16h1v.89h-1v.29a4.69 4.69 0 001.23 1.5l-.51.88a3.84 3.84 0 01-.72-1.16v4H111v-3.91a7.67 7.67 0 01-1.18 2.13l-.41-1.1a8.74 8.74 0 001.52-2.63h-1.33v-.89h1.4v-1c-.4.02-.8.06-1.19.08zm8.27 3.27h-2v1h1.83v.81h-1.83v1h2.2v.87h-5.77v-.87h2.63v-1h-1.79v-.81h1.79v-1h-2v-.85h4.9zm-.08-1.62h-4.74v-2.7H118zm-3.82-1.89v1.09h2.91v-1.09zm9.3 6.03c1.82-.18 3-1 3-2.93a2.54 2.54 0 00-1.07-2.21 2.72 2.72 0 00-1.42-.4 10.84 10.84 0 01-1.18 4.72 2 2 0 01-1.6 1.08 1.58 1.58 0 01-1.35-.92 4.1 4.1 0 013.92-5.86 3.46 3.46 0 013.79 3.65 3.78 3.78 0 01-1.23 2.93 4.61 4.61 0 01-2.55.93zm-2.32-4.43a3.42 3.42 0 00-.67 2.07c0 .48.16 1.52.79 1.52s.87-.76 1-1.16a11.06 11.06 0 00.7-3.5 3 3 0 00-1.82 1.07zm9.99 3.9l-.22-.32a19.45 19.45 0 01-2.16.81l-.1-1c.36-.07.66-.17 1-.27v-3h-.9v-.92h.9V17h.93v1.87h.69v.92h-.69v2.74a5.78 5.78 0 00.7-.24v.42a3.7 3.7 0 001.51-1.26h-1.56v-.73h6.2v.73h-3.73a3.39 3.39 0 01-.34.5h3.81a14.31 14.31 0 01-.3 3.14.91.91 0 01-.49.49 2 2 0 01-.39 0h-1.21l-.19-.9h1.21c.27 0 .3-.12.35-.36s.11-1.27.13-1.67h-.45a5.91 5.91 0 01-2.93 3l-.57-.74a4.87 4.87 0 002.65-2.19h-.66a6.27 6.27 0 01-3.19 2.3l-.45-.68a6 6 0 002.73-1.62h-.74a5.18 5.18 0 01-1.54.94zm5.74-6.34v3h-5.15v-3zm-4.28.69v.53H136V18zm0 1.12v.55H136v-.55zm12.56 1.41h-4.83v-.75a12 12 0 01-1.47.75l-.56-1a9.34 9.34 0 004-2.55h.9a9.91 9.91 0 004 2.55l-.57 1a14.13 14.13 0 01-1.39-.73zm1 .93v4h-6.87v-4zm-5.9.86v2.29h4.92v-2.29zm4.69-2.67a10.27 10.27 0 01-2.23-1.82 9.88 9.88 0 01-2.15 1.82zM17.57 113.71v77.95h51.45l6.94-7.08v-70.87H17.57z"/><path class="cls-3" d="M17.57 113.71v77.95h51.45l6.94-7.08v-70.87H17.57z"/><path class="cls-4" d="M46.76 173.81a15.1 15.1 0 10-15.09-15.1 15.1 15.1 0 0015.09 15.1z"/><path class="cls-2" d="M32.14 202.89c-1.74 0-2.56 1.21-2.6 3.19a2.61 2.61 0 012.05-1 2.06 2.06 0 012.2 2.19 2.27 2.27 0 01-2.35 2.41c-1.55 0-2.48-1.22-2.48-3.44 0-2.38 1.07-3.89 3.22-3.89a3.3 3.3 0 011.1.17l-.08.54a2.65 2.65 0 00-1.06-.17zm-2.59 3.73c.08 1.67.76 2.57 1.91 2.57a1.73 1.73 0 001.74-1.89 1.56 1.56 0 00-1.71-1.69 2.35 2.35 0 00-1.94 1.01zm14.92 2.81a.81.81 0 01-.15.59.92.92 0 01-.71.24h-1.54l-.1-.55h1.69c.31 0 .31-.15.31-.34v-2.33h-5.23a5.23 5.23 0 01-1.22 3.26l-.46-.33a5 5 0 001.17-3.51v-4.36h6.24zm-5.7-5.08H44v-1.78h-5.2zm0 2.25H44v-1.78h-5.2zm11.96-3.31a8.23 8.23 0 01-1.8 1.27l-.25-.45a7.52 7.52 0 002.16-1.61h.46v7.07h-.57zm12.39-.98v7.8h-6.83v-7.8zm-.54 3.59v-3.11h-5.76v3.11zm-5.76 3.74h5.76v-3.26h-5.76zm104.38-6.98a21 21 0 00-.15 2.5 10.33 10.33 0 00.26 2.73 2.23 2.23 0 00.43.84.85.85 0 00.62.26 1.1 1.1 0 00.83-.51 6.44 6.44 0 00.89-1.68l.46.25a5.68 5.68 0 01-1.25 2.11 1.41 1.41 0 01-1 .45c-1 0-1.36-.88-1.56-1.68a12.3 12.3 0 01-.26-2.78c0-.85.06-1.69.12-2.54zm6.74 5.24v.8h-.62v-1a5.22 5.22 0 00-1.71-4.41l.4-.37c1.63 1.24 1.93 3.08 1.93 4.98zm9.21-4.46v.56h-2.46v1.67a5.22 5.22 0 01.2 1.41 2.48 2.48 0 01-1.64 2.55 5.44 5.44 0 01-2 .4l-.18-.54h.12a3.77 3.77 0 002.69-.85 2.36 2.36 0 00.61-1.51 1.57 1.57 0 01-.67.83 2 2 0 01-1 .29 1.67 1.67 0 01-1.68-1.77 1.79 1.79 0 011.91-1.88 1.51 1.51 0 011.18.47V204h-4.73v-.52h4.72v-1.27h.56v1.27zm-4.15 1.63a1.25 1.25 0 00-1.34 1.31 1.21 1.21 0 001.19 1.33 1.28 1.28 0 001.35-1.25V206a1.16 1.16 0 00-1.2-.93zm2.53-3.73a8.5 8.5 0 011.11 1.56l-.47.31a8.53 8.53 0 00-1-1.56zm1.52-.06a8.37 8.37 0 011.07 1.57l-.48.3a8.93 8.93 0 00-1-1.57zm1.71 2.94v-.54h1.66v-1.51h.58c-.07.8-.07 1.61-.07 2.42a4.66 4.66 0 013.15-1.86 1.18 1.18 0 011 .56 1.46 1.46 0 01.2.84v.57l-.08 1.25c0 .74-.07 1.3-.07 1.71 0 .72 0 1 .53 1.2a3.1 3.1 0 00.91.1l-.2.53a2.88 2.88 0 01-1.2-.23c-.57-.27-.6-.87-.6-1.41s.05-1.3.09-2l.07-1.26v-.35a1.31 1.31 0 00-.16-.75.74.74 0 00-.61-.29c-1.15 0-2.38 1.24-3.07 2v4.56h-.55v-3.72a9.09 9.09 0 01-1.44 2.15l-.42-.48a7.09 7.09 0 001.92-2.71v-.78zm9.68 5.58l-.54-.22a22.91 22.91 0 001.63-5.22H188v-.52h1.66c.1-.57.18-1.14.25-1.71h.61c-.09.55-.19 1.12-.29 1.68h1.11a1.93 1.93 0 011.49.41 2.49 2.49 0 01.52 1.79 8.49 8.49 0 01-.45 2.84 1.4 1.4 0 01-1.53.9 10.73 10.73 0 01-1.14-.07v-.58a5.45 5.45 0 001.06.11 1 1 0 001.07-.57 7.06 7.06 0 00.42-2.58c0-1.7-.6-1.76-1.61-1.76h-1a26.38 26.38 0 01-1.73 5.5zm7.31-3l-.6.12a5.83 5.83 0 00-1.41-3.63l.44-.27a5.86 5.86 0 011.57 3.78zm2.64-1.33v2.65a1.26 1.26 0 00.9 1.25 5.34 5.34 0 001.59.25h4.36l-.08.48h-4.36a5 5 0 01-1.59-.27 2.1 2.1 0 01-1-.77 11.09 11.09 0 01-1.22 1.25l-.34-.44a6.83 6.83 0 001.24-1.1V206h-1.14v-.5zm.27-2.12l-.37.33a8 8 0 00-1.37-1.36l.34-.37a7.73 7.73 0 011.4 1.4zm2.88-1.34v1.5h-2v.73c0 .19 0 .2.15.2h1.42c.12 0 .16 0 .2-.16a3.55 3.55 0 00.08-.48l.43.13a1.61 1.61 0 01-.13.66c-.11.2-.29.26-.58.26h-1.46c-.32 0-.57-.13-.57-.49v-1.28h2v-.65h-2.21V202zm3.62 5.66H199v-.41h1.64v-1h-1.45v-.42h1.45v-.67h.5v.67h1.79v-.67h.49v.67H205v.42h-1.57v1h1.78zm-5.62 1.49l-.31-.38a6.3 6.3 0 001.69-.87l.34.34a5.37 5.37 0 01-1.72.91zm1.56-2.92v1h1.79v-1zm3.52-4.23v1.5h-2v.71c0 .2.09.22.15.22h1.52c.2 0 .25-.05.29-.2a2.29 2.29 0 00.06-.49l.45.14a1.69 1.69 0 01-.11.65.61.61 0 01-.61.31h-1.64c-.43 0-.57-.15-.57-.56v-1.21h2v-.65H202V202zm-1.87 6.3l.32-.36a5.19 5.19 0 002 .88l-.27.44a5.34 5.34 0 01-2.05-.96zm6.31-2.53l.05.49-1.18.51v2.79c0 .51-.15.7-.67.7h-.89l-.13-.53h.89c.29 0 .3-.07.3-.27V207c-.47.19-.94.37-1.42.52l-.09-.48c.51-.16 1-.34 1.51-.54v-2.44H206v-.45h1.48v-1.75h.5v1.75h1.18v.45h-1.18v2.25c.33-.17.71-.31 1.08-.53zm5-3.65v3.51h-1.92a5.13 5.13 0 002.36 4.13l-.33.45a6.08 6.08 0 01-2.55-4.58H210v.29a6.52 6.52 0 01-1.29 4.3l-.34-.52a5.74 5.74 0 001.14-3.79v-3.79zm-4.09.45v2.59h3.57v-2.59z"/><path class="cls-5" d="M43.89 129h-4.83v-.75a10.6 10.6 0 01-1.46.75l-.6-1a9.3 9.3 0 004-2.56h.9a9.79 9.79 0 004 2.56l-.58 1a11.54 11.54 0 01-1.39-.73zm1 .93v4H38v-4zm-5.9.86v2.29h4.92v-2.29zm4.69-2.67a10.27 10.27 0 01-2.23-1.82 9.4 9.4 0 01-2.15 1.82zm6.1 2.47l-.5.73a7 7 0 01-.74-1.37v4.16h-.88v-4.33a9 9 0 01-1.14 2.36l-.36-1.21a8.5 8.5 0 001.45-2.88h-1.28v-.89h1.33v-1.7h.88v1.7h.92v.89h-.92v.51a7.06 7.06 0 001.24 2.03zm5.36-1.13l-.41.9a9.49 9.49 0 01-2.3-1.14 10.86 10.86 0 01-2.43 1.24l-.42-.8a7.08 7.08 0 002.19-1 5 5 0 01-1-1.08 6.74 6.74 0 01-.64.45l-.52-.79a4.35 4.35 0 001.78-1.8l1 .13a5.49 5.49 0 01-.31.59h2.62v.84a6 6 0 01-1.41 1.63 8.65 8.65 0 001.85.83zm-.72 4.47h-4.27v-3.47h4.27zm-3.37-2.61V133h2.47v-1.72zM53.5 127h-2.17a4.76 4.76 0 001.1 1.14A4.38 4.38 0 0053.5 127z"/><path class="cls-3" d="M76.1 184.58h-7.09v7.08"/><path class="cls-6" d="M133.74 124.69l-8.25-4.76v3.04H92.81v3.44h32.68v3.04l8.25-4.76zm0 28.39l-8.25-4.76v3.04H92.81v3.45h32.68v3.04l8.25-4.77zm0 28.4l-8.25-4.77v3.04H92.81v3.45h32.68v3.04l8.25-4.76z"/><path class="cls-7" d="M19.93 38.49h70.13a2.83 2.83 0 012.83 2.83v16.73a2.84 2.84 0 01-2.84 2.84H19.93a2.84 2.84 0 01-2.84-2.84V41.33a2.84 2.84 0 012.84-2.84z"/><path class="cls-2" d="M32.82 47.35h-3.57v-.66H34l-4.36 6.67-.52-.36zm10.43 5.56c0 .48-.14.72-.48.83a7.42 7.42 0 01-2 .13 2.83 2.83 0 00-.28-.71h1.71c.21 0 .29-.08.29-.28v-1.82h-4.37a5.14 5.14 0 01-1.59 2.86 2.69 2.69 0 00-.51-.5 5.79 5.79 0 001.62-4.62V46h5.61zm-.71-2.53v-1.54h-4.21a12 12 0 01-.1 1.54zm-4.21-3.73v1.53h4.21v-1.53zm12.35.29L49.18 49a1.85 1.85 0 01.58-.09 2.06 2.06 0 012.11 2.15 2.25 2.25 0 01-4.49 0 2.53 2.53 0 01.53-1.5l2.22-3.08zm.47 4.17a1.53 1.53 0 00-3.06 0 1.53 1.53 0 103.06 0zm10.27-4.98v7.63h-.72v-.56h-4.57v.6h-.69v-7.67zm-5.29.67v2.49h4.57V46.8zm4.57 5.73V50h-4.57v2.57zm7.3-6.48a7.88 7.88 0 003.82 7.25 3.8 3.8 0 00-.55.58 8 8 0 01-3.66-5.14A8.11 8.11 0 0164 53.88a5.58 5.58 0 00-.62-.54c2-1.06 3.17-2.91 3.73-5.49l.41.07a9.07 9.07 0 01-.12-1.18h-2.29v-.69zm12.87 5.25h-3.71v1.79c0 .41-.11.61-.44.71a7 7 0 01-1.7.11 2.66 2.66 0 00-.28-.65h1.5c.18 0 .24-.06.24-.2V51.3h-3.69v-.64h3.69V50h.35a8.13 8.13 0 001.3-.81h-3.81v-.61h4.64l.44.33a8.3 8.3 0 01-2.24 1.56v.23h3.71zm-7.25-2.24H73V47h1.41a7.79 7.79 0 00-.78-1.15l.58-.26a6.16 6.16 0 01.88 1.26l-.31.15h1.88a5.52 5.52 0 00-.69-1.34l.6-.22a5.4 5.4 0 01.75 1.41l-.4.15h1.63a9.9 9.9 0 001-1.46l.71.24c-.29.41-.63.85-.94 1.22h1.43v2H80v-1.37h-6.38z"/><path class="cls-7" d="M152.93 113.49h70.13a2.83 2.83 0 012.83 2.83v16.72a2.84 2.84 0 01-2.84 2.84h-70.12a2.84 2.84 0 01-2.84-2.84v-16.71a2.84 2.84 0 012.84-2.84z"/><path class="cls-2" d="M165.82 122.35h-3.57v-.66H167l-4.36 6.67-.56-.38zm10.43 5.56c0 .48-.14.72-.48.83a7.42 7.42 0 01-2 .13 2.83 2.83 0 00-.28-.71h1.71c.21 0 .29-.08.29-.28v-1.84h-4.42a5.14 5.14 0 01-1.59 2.86 2.69 2.69 0 00-.51-.5 5.79 5.79 0 001.62-4.62V121h5.61zm-.71-2.53v-1.54h-4.21a12 12 0 01-.1 1.54zm-4.21-3.73v1.53h4.21v-1.53zm12.35.29l-1.5 2.09a1.85 1.85 0 01.58-.09 2.06 2.06 0 012.11 2.15 2.25 2.25 0 01-4.49 0 2.53 2.53 0 01.53-1.5l2.22-3.08zm.47 4.17a1.53 1.53 0 00-3.06 0 1.53 1.53 0 103.06 0zm10.27-4.98v7.63h-.72v-.56h-4.57v.6h-.69v-7.67zm-5.29.67v2.49h4.57v-2.49zm4.57 5.73V125h-4.57v2.57zm7.3-6.48a7.88 7.88 0 003.82 7.25 3.8 3.8 0 00-.55.58 8 8 0 01-3.66-5.14 8.11 8.11 0 01-3.67 5.14 5.58 5.58 0 00-.62-.54c2-1.06 3.17-2.91 3.73-5.49l.41.07a9.07 9.07 0 01-.12-1.18h-2.27v-.69zm12.87 5.25h-3.71v1.79c0 .41-.11.61-.44.71a7 7 0 01-1.7.11 2.66 2.66 0 00-.28-.65h1.5c.18 0 .24-.06.24-.2v-1.76h-3.69v-.64h3.69V125h.35a8.13 8.13 0 001.3-.81h-3.81v-.61h4.64l.44.33a8.3 8.3 0 01-2.24 1.56v.23h3.71zm-7.25-2.24H206v-2h1.41a7.79 7.79 0 00-.78-1.15l.58-.26a6.16 6.16 0 01.88 1.26l-.31.15h1.88a5.52 5.52 0 00-.69-1.34l.6-.22a5.4 5.4 0 01.75 1.41l-.4.15h1.63a9.9 9.9 0 001-1.46l.71.24c-.29.41-.63.85-.94 1.22h1.43v2H213v-1.43h-6.42z"/><path class="cls-8" d="M102.07 38.49h70.16a2.83 2.83 0 012.83 2.83v16.73a2.83 2.83 0 01-2.83 2.83h-70.16a2.83 2.83 0 01-2.83-2.83V41.33a2.84 2.84 0 012.83-2.84z"/><path class="cls-2" d="M110.46 47.37h-1.1l.38-.68h1.43v6.51h-.71zm4.05 4.98a4.26 4.26 0 01-.65-2.4 4.2 4.2 0 01.65-2.39 1.91 1.91 0 013.34 0 4.2 4.2 0 01.65 2.44 4.26 4.26 0 01-.65 2.4 1.92 1.92 0 01-3.34 0zm.54-4.38a4.34 4.34 0 000 4 1.39 1.39 0 001.13.72 1.37 1.37 0 001.12-.72 4.34 4.34 0 000-4 1.36 1.36 0 00-1.12-.73 1.39 1.39 0 00-1.13.76zM128 52.91c0 .48-.13.72-.48.83a7.29 7.29 0 01-1.94.13 2.83 2.83 0 00-.28-.71h1.71c.21 0 .29-.08.29-.28v-1.82h-4.43a5.19 5.19 0 01-1.58 2.86 3 3 0 00-.51-.5 5.77 5.77 0 001.61-4.62V46H128zm-.7-2.53v-1.54h-4.22a10.46 10.46 0 01-.1 1.54zm-4.22-3.73v1.53h4.22v-1.53zm12.7.7h-2.08l-.42 1.42a1.68 1.68 0 01.41 0 2.11 2.11 0 012.14 2.23 2.27 2.27 0 01-2.37 2.34 2.19 2.19 0 01-1.45-.5 2.69 2.69 0 01-.57-.67l.58-.41a1.39 1.39 0 00.44.53 1.6 1.6 0 002.65-1.29 1.54 1.54 0 00-1.6-1.6 2.15 2.15 0 00-1.26.45l.95-3.15h2.58zm9.69-1.22v7.64h-.71v-.57h-4.57v.6h-.69v-7.67zm-5.28.67v2.49h4.57V46.8zm4.57 5.73V50h-4.57v2.57zm7.34-6.48a7.87 7.87 0 003.82 7.25 3.8 3.8 0 00-.55.58 8 8 0 01-3.66-5.14 8.11 8.11 0 01-3.71 5.14 5.58 5.58 0 00-.62-.54c2-1.06 3.17-2.91 3.73-5.49l.41.07a9.07 9.07 0 01-.12-1.18h-2.27v-.69zm12.83 5.25h-3.71v1.79c0 .41-.11.61-.44.71a7 7 0 01-1.7.11 2.66 2.66 0 00-.28-.65h1.5c.18 0 .24-.06.24-.2V51.3h-3.69v-.64h3.69V50h.35a8.13 8.13 0 001.3-.81h-3.81v-.61h4.64l.44.33a8.3 8.3 0 01-2.24 1.56v.23h3.71zm-7.25-2.24H157V47h1.41a7.79 7.79 0 00-.78-1.15l.57-.26a6.12 6.12 0 01.89 1.26l-.31.15h1.87a5.14 5.14 0 00-.68-1.34l.6-.22a5.4 5.4 0 01.75 1.41L161 47h1.63a9.9 9.9 0 001-1.46l.71.24c-.29.41-.63.85-.94 1.22h1.43v2h-.67v-1.37h-6.42z"/><path class="cls-8" d="M152.92 141.89h70.16a2.83 2.83 0 012.83 2.83v16.73a2.83 2.83 0 01-2.83 2.83h-70.16a2.84 2.84 0 01-2.84-2.84v-16.72a2.84 2.84 0 012.84-2.83z"/><path class="cls-2" d="M161.3 150.77h-1.09l.38-.68H162v6.51h-.72zm4.05 4.97a4.74 4.74 0 010-4.79 1.92 1.92 0 013.35 0 4.74 4.74 0 010 4.79 1.92 1.92 0 01-3.35 0zm.55-4.38a4.34 4.34 0 000 4 1.24 1.24 0 002.25 0 4.34 4.34 0 000-4 1.24 1.24 0 00-2.25 0zm12.99 4.94c0 .48-.14.72-.48.83a7.37 7.37 0 01-1.94.13 3.79 3.79 0 00-.29-.71h1.72c.22 0 .28-.07.28-.28v-1.84h-4.42a5.2 5.2 0 01-1.59 2.87 2.37 2.37 0 00-.5-.5 5.83 5.83 0 001.61-4.63v-2.82h5.61zm-.71-2.52v-1.55H174a12.19 12.19 0 01-.1 1.55zm-4.18-3.73v1.53h4.21v-1.53zm12.63.7h-2.09l-.42 1.41a1.78 1.78 0 01.41 0 2.11 2.11 0 012.14 2.25 2.27 2.27 0 01-2.36 2.35 2.23 2.23 0 01-1.46-.51 2.79 2.79 0 01-.56-.66l.57-.41a1.57 1.57 0 00.44.52 1.6 1.6 0 001.06.39 1.62 1.62 0 001.6-1.67 1.55 1.55 0 00-1.6-1.6 2.11 2.11 0 00-1.26.45l.94-3.14h2.59zm9.69-1.23v7.64h-.72v-.56H191v.6h-.69v-7.68zm-5.29.67v2.49h4.57v-2.49zm4.57 5.74v-2.57H191v2.57zm7.4-6.48a7.89 7.89 0 003.82 7.25 3.3 3.3 0 00-.55.57 7.92 7.92 0 01-3.66-5.13 8.14 8.14 0 01-3.68 5.14 4.6 4.6 0 00-.61-.54c2-1.06 3.16-2.92 3.73-5.49l.4.06c-.06-.42-.1-.83-.12-1.18H200v-.68zm12.78 5.24h-3.71v1.8c0 .4-.12.61-.45.71a6.86 6.86 0 01-1.69.11 3.23 3.23 0 00-.29-.66h1.5c.17 0 .24 0 .24-.19v-1.78h-3.68v-.64h3.68v-.66h.35a6.79 6.79 0 001.3-.81h-3.8V152h4.63l.44.33a8 8 0 01-2.23 1.55v.23h3.71zm-7.25-2.24h-.66v-2h1.41a7 7 0 00-.77-1.15l.57-.26a6.19 6.19 0 01.89 1.25l-.32.16h1.88a5.35 5.35 0 00-.68-1.35l.6-.22a5.72 5.72 0 01.75 1.41l-.4.16h1.63a10.43 10.43 0 001-1.47l.71.24a12.87 12.87 0 01-.94 1.23h1.43v2H215V151h-6.42z"/><path class="cls-7" d="M184.07 38.13h70.16a2.83 2.83 0 012.83 2.87v16.69a2.83 2.83 0 01-2.83 2.83h-70.16a2.83 2.83 0 01-2.83-2.83V41a2.84 2.84 0 012.83-2.87z"/><path class="cls-2" d="M192.83 47h-1.1l.38-.68h1.43v6.51h-.71zm3.25 5.84l2.37-2.75c.17-.19.61-.71.77-.94a1.69 1.69 0 00.36-1 1.31 1.31 0 00-2.39-.69 1.41 1.41 0 00-.22.77h-.72a2.09 2.09 0 01.49-1.35 2.05 2.05 0 013.56 1.28 2.32 2.32 0 01-.52 1.4 12.83 12.83 0 01-.89 1.08l-1.36 1.54h2.76v.66zm13.97-.29c0 .47-.14.71-.48.82a7 7 0 01-1.95.13 3.17 3.17 0 00-.28-.71h1.71c.21 0 .29-.07.29-.27v-1.83h-4.43a5.18 5.18 0 01-1.58 2.87 2.42 2.42 0 00-.51-.5 5.78 5.78 0 001.61-4.62v-2.82h5.62zm-.71-2.55v-1.53h-4.21A10.66 10.66 0 01205 50zm-4.21-3.73v1.53h4.21v-1.51zm12.05 4.67h.8v.66h-.8v1.24h-.72V51.6h-3.34l4.06-5.6zm-.72 0v-2.87l-2.06 2.87zm10.65-5.18v7.64h-.72v-.56h-4.57v.6h-.69v-7.68zm-5.29.68v2.48h4.57v-2.48zm4.57 5.73V49.6h-4.57v2.57zm7.34-6.48a7.88 7.88 0 003.82 7.25 3.72 3.72 0 00-.55.57 8 8 0 01-3.66-5.13 8.14 8.14 0 01-3.67 5.14 4.71 4.71 0 00-.62-.54c2-1.06 3.17-2.91 3.73-5.49l.41.06a11 11 0 01-.12-1.18h-2.27v-.68zm12.83 5.24h-3.71v1.8c0 .41-.11.61-.44.71a7 7 0 01-1.7.11 2.66 2.66 0 00-.28-.65h1.5c.19 0 .24-.06.24-.2v-1.77h-3.69v-.63h3.69v-.67h.35a7.47 7.47 0 001.3-.81H240v-.6h4.64l.44.33a8.3 8.3 0 01-2.24 1.56v.23h3.71zm-7.25-2.24h-.65v-2h1.41a8.55 8.55 0 00-.77-1.15l.57-.26a6 6 0 01.88 1.25l-.31.16h1.88a5.7 5.7 0 00-.68-1.35l.59-.22a5.56 5.56 0 01.77 1.38l-.4.16h1.64a10.15 10.15 0 001-1.47l.71.24c-.29.42-.63.86-.94 1.23h1.43v2h-.67v-1.39h-6.42z"/><path class="cls-7" d="M152.92 170.28h70.16a2.83 2.83 0 012.83 2.83v16.73a2.83 2.83 0 01-2.83 2.83h-70.16a2.84 2.84 0 01-2.84-2.84v-16.72a2.84 2.84 0 012.84-2.83z"/><path class="cls-2" d="M161.67 179.16h-1.09l.38-.68h1.43V185h-.72zm3.25 5.84l2.38-2.74c.16-.2.61-.72.76-.95a1.65 1.65 0 00.37-1 1.24 1.24 0 00-1.31-1.27 1.27 1.27 0 00-1.09.58 1.5 1.5 0 00-.21.77h-.72a2.09 2.09 0 01.48-1.35 2 2 0 011.55-.66 1.92 1.92 0 012 1.94 2.3 2.3 0 01-.51 1.4c-.27.38-.63.78-.89 1.08l-1.36 1.54h2.75v.66zm13.97-.3c0 .47-.14.72-.48.82a7 7 0 01-1.94.13 3.79 3.79 0 00-.29-.71h1.72c.22 0 .28-.07.28-.27v-1.85h-4.42a5.14 5.14 0 01-1.59 2.87 2.37 2.37 0 00-.5-.5 5.82 5.82 0 001.61-4.62v-2.82h5.61zm-.71-2.53v-1.55H174a12.19 12.19 0 01-.1 1.55zm-4.18-3.73V180h4.21v-1.53zm12 4.65h.8v.66h-.8V185h-.72v-1.24H182l4.06-5.63zm-.72 0v-2.87l-2.06 2.87zm10.72-5.17v7.63h-.72V185h-4.57v.6H190v-7.67zm-5.29.67v2.49h4.57v-2.49zm4.57 5.73v-2.57h-4.57v2.57zm7.3-6.48a7.88 7.88 0 003.82 7.25 3.3 3.3 0 00-.55.57 7.92 7.92 0 01-3.66-5.13 8.11 8.11 0 01-3.68 5.14 4 4 0 00-.61-.54c2-1.06 3.17-2.91 3.73-5.49l.4.06c-.06-.42-.1-.83-.12-1.18h-2.26v-.68zm12.83 5.24h-3.71v1.8c0 .41-.11.61-.44.71a7 7 0 01-1.7.11 3.11 3.11 0 00-.28-.65h1.5c.19 0 .24-.06.24-.2v-1.78h-3.69v-.63H211v-.67h.35a7 7 0 001.29-.81h-3.8v-.6h4.63l.45.33a8.3 8.3 0 01-2.24 1.56v.23h3.71zm-7.25-2.24h-.65v-2h1.41a7.79 7.79 0 00-.78-1.15l.57-.26a6.48 6.48 0 01.89 1.25l-.32.16h1.88a5.35 5.35 0 00-.68-1.35l.6-.22a5.9 5.9 0 01.75 1.41l-.4.16h1.63a9.47 9.47 0 001-1.47l.71.24c-.29.42-.63.86-.94 1.23h1.42v2h-.66v-1.42h-6.42z"/><path class="cls-8" d="M266.55 38h70.16a2.83 2.83 0 012.83 2.83v16.74a2.83 2.83 0 01-2.83 2.83h-70.16a2.84 2.84 0 01-2.84-2.84V40.85a2.84 2.84 0 012.84-2.85z"/><path class="cls-2" d="M277.53 46.89h-1.1l.38-.68h1.43v6.51h-.71zm11.86 5.54c0 .48-.13.72-.48.83a7.33 7.33 0 01-1.94.13 2.87 2.87 0 00-.29-.71h1.72c.21 0 .28-.07.28-.27v-1.83h-4.42a5.19 5.19 0 01-1.58 2.86 2.42 2.42 0 00-.51-.5 5.82 5.82 0 001.61-4.62V45.5h5.61zm-.71-2.53v-1.55h-4.21a10.5 10.5 0 01-.1 1.55zm-4.21-3.73v1.53h4.21v-1.53zm12.6 4.66h.8v.66h-.8v1.23h-.72v-1.23H293l4.06-5.64zm-.72 0V48l-2.06 2.88zm11.02-5.18v7.63h-.72v-.56h-4.57v.6h-.69v-7.67zm-5.29.67v2.49h4.57v-2.49zm4.57 5.73v-2.57h-4.57v2.57zm7.35-6.48a7.88 7.88 0 003.82 7.25 3.39 3.39 0 00-.55.58 8 8 0 01-3.66-5.14 8.11 8.11 0 01-3.67 5.14 4.8 4.8 0 00-.62-.54c2-1.06 3.17-2.91 3.73-5.49l.41.06a11.07 11.07 0 01-.12-1.17h-2.27v-.69zm12.82 5.25h-3.71v1.79c0 .41-.11.61-.44.71a7 7 0 01-1.7.11 2.66 2.66 0 00-.28-.65h1.5c.18 0 .24-.06.24-.2v-1.76h-3.69v-.64h3.69v-.66h.35a8.13 8.13 0 001.3-.81h-3.81v-.61h4.64l.44.33a8.3 8.3 0 01-2.24 1.57v.23h3.71zm-7.25-2.24h-.65v-2h1.41a7.79 7.79 0 00-.78-1.15l.58-.26a6.4 6.4 0 01.88 1.25l-.31.16h1.88a5.18 5.18 0 00-.69-1.34l.6-.23a5.73 5.73 0 01.75 1.41l-.4.16h1.63a9.9 9.9 0 001-1.46l.71.24c-.29.41-.63.85-.94 1.22h1.43v2H326v-1.43h-6.42zM270 94.54h-4.83v-.75a11.83 11.83 0 01-1.46.75l-.56-1a9.37 9.37 0 003.91-2.54h.9a9.88 9.88 0 004 2.55l-.58 1a15.35 15.35 0 01-1.39-.73zm1 .93v4h-6.87v-4zm-5.9.86v2.29h4.9v-2.29zm4.69-2.67a10.52 10.52 0 01-2.23-1.82 9.44 9.44 0 01-2.15 1.82zm7.39 2h-1v-2.13a14.1 14.1 0 01-3.44 1.85l-.4-.88a11 11 0 002.34-1 4.76 4.76 0 001.57-1.28h-3.91v-.89h8.67v.89h-3.51a2.28 2.28 0 01-.36.46zm2.95.3v3.5h-6.84V96zm-5.86 2.66h4.89v-1.8h-4.89zm3.79-6a9.15 9.15 0 003.06 1.82l-.49.88a9 9 0 01-3.24-2.1zm4.72 6.58l-.95-.53A15.06 15.06 0 00283.4 94H282v-1h1.6c.08-.55.13-1.11.16-1.68l1.08.09c-.05.53-.13 1.07-.21 1.59h.89a1.84 1.84 0 011.38.44 3.12 3.12 0 01.5 2 6.25 6.25 0 01-.6 3 1.49 1.49 0 01-1.37.62 4.63 4.63 0 01-1.05-.12v-1a5.66 5.66 0 00.92.13c.57 0 .82-.33 1-.85a9.34 9.34 0 00.23-2c0-.73-.08-1.27-.95-1.26h-1a19.59 19.59 0 01-1.8 5.24zm6.73-2.67l-1.07.15a5.8 5.8 0 00-1.36-3.68l.71-.51a6.75 6.75 0 011.72 4.04zm-1.08-5.19a7.63 7.63 0 011.11 1.66l-.61.43a7.55 7.55 0 00-1.06-1.68zm1.07-.66a8.93 8.93 0 011.11 1.64l-.6.44a8 8 0 00-1.07-1.68zm6.44 2.37a6.51 6.51 0 01-1.53 1.06l-.5-.84a8.23 8.23 0 002.25-1.65h.89v7.29h-1.11zm3.57 2.21c0-2.44 1-3.77 2.59-3.77s2.59 1.33 2.59 3.77-1 3.78-2.59 3.78-2.59-1.33-2.59-3.78zm4 0c0-1.9-.51-2.8-1.41-2.8s-1.41.9-1.41 2.8.52 2.81 1.41 2.81 1.41-.89 1.41-2.81zm11.88 3.49a.83.83 0 01-.88.92h-1.79l-.15-1h1.52c.21 0 .29-.11.29-.31v-1.73h-4.5a5.41 5.41 0 01-1.19 3l-.89-.63a5.4 5.4 0 001.12-3.74v-3.87h6.47zm-5.47-5.26h4.46V92.3h-4.46zm0 2.23h4.46v-1.34h-4.46zm11.39-2.67a6.51 6.51 0 01-1.53 1.06l-.49-.84a8.33 8.33 0 002.24-1.65h.89v7.29h-1.11zm12.77-1.6v8H327v-8zm-1 3.47V92.4H328v2.52zM328 98.48h5.1v-2.62H328zm9.61-6.83a19.8 19.8 0 00-.4 4.2 16.29 16.29 0 00.27 3.27l-1.09.08a19.85 19.85 0 01-.24-3.18 23.8 23.8 0 01.37-4.45zm2.36 4a2.21 2.21 0 00-.45 1.18c0 .87 1.16.87 1.77.87a19.17 19.17 0 002.14-.11v1.07c-.59.05-1.18.08-1.78.08-1.26 0-3.1-.09-3.1-1.79a3.14 3.14 0 01.48-1.56zm3.29-3.35v1h-4.43v-1zm9.22-.51l.73.42a10.89 10.89 0 01-1.24 1.3c.47.25.92.47 1.41.68l-.38.86c-.45-.21-.9-.43-1.33-.67V95h-1.19v1h2.57v.87h-2.57v1.48c0 .18.08.22.25.22h1.19c.38 0 .4-.26.45-1.11l.93.13a5.39 5.39 0 01-.29 1.51.7.7 0 01-.71.36h-1.93c-.43 0-.82-.1-.82-.62v-2h-1.44a3.56 3.56 0 01-3 2.76l-.46-.93a3.36 3.36 0 001.7-.63 1.83 1.83 0 00.83-1.2h-2.34V96h2.43v-1h-1v-.55a13.07 13.07 0 01-1.23.65l-.45-.87a8.81 8.81 0 001.59-.74 13.6 13.6 0 00-1.09-.92l.53-.48h-.09v-.79h4a4.41 4.41 0 00.61.81 11.78 11.78 0 001.01-1.11l.74.44a15 15 0 01-1.19 1.2c.19.15.34.26.54.39a11.55 11.55 0 001.24-1.24zm-4.6.29h-2.08a13.51 13.51 0 011.09.88 5.89 5.89 0 00.99-.88zm1 0a9.31 9.31 0 01-2.21 2h4.5a9.65 9.65 0 01-2.25-1.96zm-.69 2.92v1h1.36v-1zm8.59 1.77v1.74c.81-.14 1.61-.31 2.41-.49v.84a45.81 45.81 0 01-4.66.8l-.19-.87 1.52-.16v-1.32a13.25 13.25 0 01-1.8.72l-.37-.91a7.87 7.87 0 003.31-1.68h-3.2v-.81h3.89V94h-3.23v-.77h3.23v-.6H354v-.81h3.68V91h.93v.75h3.65v.81h-3.65v.6h3.2V94h-3.2v.67h3.86v.81h-3.42a5.22 5.22 0 00.71 1.34 9.35 9.35 0 001.54-1.25l.69.68a16.26 16.26 0 01-1.65 1.25 5.58 5.58 0 002.22 1.44l-.56.84a6.84 6.84 0 01-3.87-4.21 7.39 7.39 0 01-1.35 1.2zm13.3-.68l-.91.58a10.22 10.22 0 01-1.6-2.84h-3.98v-1h3.67a13.56 13.56 0 01-.35-1.43l1.08-.09a10.53 10.53 0 00.32 1.48 17 17 0 002.66-.34l.19 1a15.32 15.32 0 01-2.52.29 8 8 0 001.44 2.35zm-4.15-.1a1.4 1.4 0 00-.91 1.13c0 1 1.43 1.09 2.61 1.09a18.81 18.81 0 002.49-.15v1c-.79.07-1.59.09-2.38.09a4.88 4.88 0 01-3.19-.76 1.68 1.68 0 01-.57-1.28 2.15 2.15 0 011.41-1.86zm6.82-2.15v-1h1.59v-1.4h1.07c-.06.67-.06 1.35-.07 2a4 4 0 012.77-1.44 1.34 1.34 0 011.22.7 2.11 2.11 0 01.17.89v.52l-.05 1.37c0 .46-.05.92-.05 1.38 0 .69 0 1 1.18 1h.18l-.28 1a3.4 3.4 0 01-1.45-.26c-.66-.31-.7-1-.7-1.65s0-1 .07-1.53l.06-1.34v-.25c0-.25 0-.85-.63-.85-.9 0-2 1-2.49 1.7v4.47h-1.05v-3.08a9 9 0 01-1.24 1.77l-.57-1a7.75 7.75 0 001.83-2.45v-.64zm10.99 2.56a21.29 21.29 0 01-.91 2.94l-1.05-.34a21 21 0 001.52-5.48H382v-1h1.41c0-.38.08-.77.1-1.16h1.1c-.05.38-.09.75-.14 1.12h2.37v1h-2.52c-.16 1.01-.32 1.97-.58 2.92zm2.51.27a1.46 1.46 0 00-.29.76c0 .71 1 .76 2 .76.54 0 1.18 0 1.72-.08v1h-1.71a4.91 4.91 0 01-2.25-.35 1.39 1.39 0 01-.74-1.23 2.32 2.32 0 01.45-1.26zm2.7-2.84h.55v1h-1a6.75 6.75 0 00-2.48.39l-.35-.88a8.16 8.16 0 013.33-.51zm4.29-.93a8.25 8.25 0 00-.26 2.37 5.05 5.05 0 013-1 2.77 2.77 0 011.9.63 2.16 2.16 0 01.63 1.54 2.29 2.29 0 01-1.2 2.17 6.38 6.38 0 01-3 .59 12.87 12.87 0 01-1.75-.12l-.11-1a12 12 0 001.8.14 4.15 4.15 0 002.84-.79 1.47 1.47 0 00.34-1c0-.92-.73-1.28-1.56-1.28a3.85 3.85 0 00-2.9 1.23v.19h-1c0-.86 0-1.74.08-2.61a9.49 9.49 0 01.18-1.19zm4.13-1l-.27 1.1a12 12 0 00-3.8-.7l.19-1a15 15 0 013.88.61zm3.78 2.7a.76.76 0 010 1.51.76.76 0 110-1.51zm3.07 0a.76.76 0 11-.76.76.75.75 0 01.76-.76zm3.07 0a.76.76 0 110 1.51.76.76 0 110-1.51zm-144.24 19.11v77.95h51.45l6.94-7.08v-70.87h-58.39z"/><path class="cls-3" d="M263.05 113.71v77.95h51.45l6.94-7.08v-70.87h-58.39z"/><path class="cls-4" d="M292.24 173.81a15.1 15.1 0 10-15.09-15.1 15.1 15.1 0 0015.09 15.1z"/><path class="cls-2" d="M274.42 203.29a8.23 8.23 0 01-1.8 1.27l-.25-.45a7.52 7.52 0 002.16-1.61h.47v7.07h-.57zM278 206c0-2.34.92-3.65 2.41-3.65s2.4 1.31 2.4 3.65-.91 3.64-2.4 3.64S278 208.38 278 206zm4.22 0c0-2.06-.68-3.14-1.81-3.14s-1.82 1.08-1.82 3.14.69 3.13 1.82 3.13 1.76-1.03 1.76-3.13zm11.32 3.43a.81.81 0 01-.15.59.91.91 0 01-.71.24h-1.54l-.1-.55h1.69c.31 0 .31-.15.31-.34v-2.33h-5.23a5.28 5.28 0 01-1.21 3.26l-.47-.33a5 5 0 001.17-3.51v-4.36h6.24zm-5.7-5.08H293v-1.78h-5.2zm0 2.25H293v-1.78h-5.2zm11.96-3.31a8.23 8.23 0 01-1.8 1.27l-.25-.45a7.52 7.52 0 002.16-1.61h.46v7.07h-.57zm12.39-.98v7.8h-6.83v-7.8zm-.53 3.59v-3.11h-5.77v3.11zm-5.77 3.74h5.77v-3.26h-5.77zm100.79-7.12a21 21 0 00-.15 2.51 10.26 10.26 0 00.26 2.72 2.23 2.23 0 00.43.84.83.83 0 00.61.26 1.1 1.1 0 00.84-.51 6.87 6.87 0 00.89-1.67l.46.25a5.79 5.79 0 01-1.26 2.11 1.4 1.4 0 01-1 .44c-1 0-1.36-.88-1.56-1.68a12.22 12.22 0 01-.2-2.79c0-.86.06-1.7.12-2.55zm6.74 5.24v.81h-.62v-1a5.24 5.24 0 00-1.71-4.41l.4-.37c1.63 1.21 1.93 3.06 1.93 4.97zm9.21-4.46v.52h-2.46v1.68a5.16 5.16 0 01.2 1.41 2.48 2.48 0 01-1.64 2.54 5.66 5.66 0 01-2 .41l-.18-.55h.12a3.73 3.73 0 002.69-.85 2.36 2.36 0 00.61-1.51 1.57 1.57 0 01-.67.83 1.93 1.93 0 01-1 .3 1.67 1.67 0 01-1.68-1.78 1.79 1.79 0 011.91-1.88 1.51 1.51 0 011.18.47v-1.07h-4.81v-.52h4.72V202h.56v1.27zm-4.18 1.63a1.25 1.25 0 00-1.34 1.31 1.21 1.21 0 001.19 1.33 1.28 1.28 0 001.35-1.24v-.45a1.17 1.17 0 00-1.2-.95zm2.55-3.73a9.41 9.41 0 011.11 1.56l-.47.31a8.62 8.62 0 00-1.05-1.55zm1.52-.06a8.37 8.37 0 011.07 1.57l-.48.31a9 9 0 00-1-1.58zm1.72 2.95v-.55h1.66v-1.51h.57c-.07.8-.07 1.61-.07 2.43a4.64 4.64 0 013.15-1.87 1.19 1.19 0 011 .57 1.41 1.41 0 01.2.83v.58l-.07 1.24c0 .74-.07 1.3-.07 1.71 0 .72 0 1 .53 1.2a3.1 3.1 0 00.91.1l-.2.53a3 3 0 01-1.21-.23c-.56-.27-.59-.87-.59-1.41s.05-1.3.09-2l.07-1.26v-.35a1.31 1.31 0 00-.16-.75.75.75 0 00-.61-.29c-1.15 0-2.38 1.24-3.07 2.06v4.55h-.55v-3.72a8.84 8.84 0 01-1.45 2.15l-.41-.48a7 7 0 001.87-2.83v-.78zm9.68 5.57l-.54-.22a23.42 23.42 0 001.63-5.22h-1.56v-.52h1.66c.09-.57.18-1.14.25-1.71h.61c-.09.55-.19 1.12-.3 1.68h1.12a1.93 1.93 0 011.49.41 2.53 2.53 0 01.52 1.79 8.49 8.49 0 01-.45 2.84 1.41 1.41 0 01-1.53.9 11.09 11.09 0 01-1.15-.07V209a5.63 5.63 0 001.07.11 1 1 0 001.06-.57 6.8 6.8 0 00.43-2.58c0-1.7-.6-1.75-1.62-1.75h-1a26.38 26.38 0 01-1.69 5.45zm7.31-3l-.6.11a5.73 5.73 0 00-1.42-3.62l.45-.28a5.91 5.91 0 011.57 3.8zm2.63-1.33V208a1.26 1.26 0 00.91 1.25 5.29 5.29 0 001.59.25h4.36l-.08.49h-4.36a4.81 4.81 0 01-1.6-.28 2.1 2.1 0 01-1-.76 11.08 11.08 0 01-1.23 1.24l-.33-.43a6.89 6.89 0 001.24-1.11v-2.8h-1.15v-.5zm.28-2.12l-.37.33a8.39 8.39 0 00-1.37-1.36l.34-.37a7.73 7.73 0 011.4 1.4zm2.88-1.33v1.49h-2v.74c0 .18 0 .19.14.19h1.42c.13 0 .17 0 .21-.16s.05-.25.08-.48l.43.13a1.64 1.64 0 01-.14.67c-.1.2-.28.25-.58.25h-1.45c-.33 0-.57-.13-.57-.49v-1.28h2v-.65h-2.2v-.41zm3.62 5.65h-6.2v-.41h1.64v-1h-1.45v-.43h1.45V205h.49v.67h1.8V205h.49v.67h1.57v.43h-1.57v1h1.78zM445 209l-.31-.39a6.3 6.3 0 001.69-.87l.34.34a5.6 5.6 0 01-1.72.92zm1.55-2.92v1h1.8v-1zm3.53-4.23v1.49h-2v.72c0 .19.09.21.15.21h1.51c.21 0 .26-.05.3-.19a3.4 3.4 0 00.06-.49l.45.13a1.69 1.69 0 01-.11.65.61.61 0 01-.61.31h-1.64c-.44 0-.57-.14-.57-.56v-1.21h2v-.65h-2.16v-.41zm-1.88 6.29l.33-.36a5.3 5.3 0 002 .89l-.27.43a5.46 5.46 0 01-2.04-.93zm6.34-2.5v.49l-1.18.51v2.79c0 .51-.15.7-.67.7h-.89l-.13-.52h.89c.29 0 .3-.07.3-.27v-2.51c-.47.19-.94.37-1.42.53l-.09-.49c.51-.16 1-.34 1.51-.54v-2.44h-1.48v-.45h1.48v-1.75h.5v1.75h1.18v.45h-1.18v2.25c.43-.14.8-.31 1.18-.5zm5-3.65v3.52h-1.91a5.1 5.1 0 002.36 4.12l-.34.46a6.13 6.13 0 01-2.54-4.58h-1.65v.28a6.55 6.55 0 01-1.29 4.31l-.34-.53a5.71 5.71 0 001.13-3.79V202zm-4.08.46V205h3.57v-2.59z"/><path class="cls-5" d="M289.37 129h-4.83v-.75a10.6 10.6 0 01-1.46.75l-.57-1a9.27 9.27 0 004-2.56h.9a9.83 9.83 0 004 2.56l-.57 1a11.54 11.54 0 01-1.39-.73zm1 .93v4h-6.87v-4zm-5.9.86v2.29h4.92v-2.29zm4.69-2.67a10.27 10.27 0 01-2.23-1.82 9.4 9.4 0 01-2.15 1.82zm6.1 2.47l-.5.73A6.47 6.47 0 01294 130v4.16h-.88v-4.33a9 9 0 01-1.14 2.36l-.36-1.21a8.5 8.5 0 001.45-2.88h-1.28v-.89h1.33v-1.7h.88v1.7h.92v.89H294v.51a7.06 7.06 0 001.26 1.98zm5.36-1.13l-.41.9a9.49 9.49 0 01-2.3-1.14 10.86 10.86 0 01-2.48 1.24l-.42-.8a7.08 7.08 0 002.19-1 5 5 0 01-1-1.08 6.74 6.74 0 01-.64.45l-.52-.79a4.35 4.35 0 001.78-1.8l1 .13a5.49 5.49 0 01-.31.59h2.62v.84a6.15 6.15 0 01-1.41 1.63 8.65 8.65 0 001.9.83zm-.72 4.47h-4.28v-3.47h4.28zm-3.37-2.61V133H299v-1.72zM299 127h-2.17a5 5 0 001.11 1.14A4.38 4.38 0 00299 127z"/><path class="cls-3" d="M321.58 184.58h-7.09v7.08"/><path class="cls-6" d="M378.74 124.69l-8.25-4.76v3.04h-32.68v3.44h32.68v3.04l8.25-4.76zm0 28.39l-8.25-4.76v3.04h-32.68v3.45h32.68v3.04l8.25-4.77z"/><path class="cls-7" d="M397.92 113.49h70.16a2.83 2.83 0 012.83 2.83v16.73a2.83 2.83 0 01-2.83 2.83h-70.16a2.84 2.84 0 01-2.84-2.84v-16.71a2.84 2.84 0 012.84-2.84z"/><path class="cls-2" d="M406.67 122.37h-1.09l.38-.68h1.43v6.51h-.72zm3.25 5.83l2.38-2.74c.16-.2.61-.72.76-.95a1.65 1.65 0 00.37-1 1.24 1.24 0 00-1.31-1.27 1.27 1.27 0 00-1.09.58 1.5 1.5 0 00-.21.77h-.72a2.13 2.13 0 01.48-1.35 2 2 0 011.55-.66 1.92 1.92 0 012 1.94 2.3 2.3 0 01-.51 1.4c-.27.38-.63.78-.89 1.09l-1.36 1.53h2.75v.66zm13.97-.29c0 .48-.14.72-.48.83a7.37 7.37 0 01-1.94.13 3.32 3.32 0 00-.29-.71h1.72c.22 0 .28-.08.28-.28v-1.84h-4.42a5.14 5.14 0 01-1.59 2.86 2.63 2.63 0 00-.5-.5 5.82 5.82 0 001.61-4.62V121h5.61zm-.71-2.53v-1.54H419a12.15 12.15 0 01-.1 1.54zm-4.18-3.73v1.53h4.21v-1.53zm12 4.65h.8v.7h-.8v1.23h-.72V127H427l4.06-5.64zm-.72 0v-2.87l-2.06 2.87zm10.72-5.17v7.63h-.72v-.56h-4.57v.6H435v-7.67zm-5.29.67v2.49h4.57v-2.49zm4.57 5.73V125h-4.57v2.57zm7.3-6.48a7.88 7.88 0 003.82 7.25 3 3 0 00-.55.58 8 8 0 01-3.66-5.14 8.09 8.09 0 01-3.68 5.14 4.68 4.68 0 00-.61-.54c2-1.06 3.17-2.91 3.73-5.49l.4.06c-.06-.42-.1-.82-.12-1.17h-2.26v-.69zm12.83 5.25h-3.71v1.79c0 .41-.11.61-.44.71a7 7 0 01-1.7.11 3.11 3.11 0 00-.28-.65h1.5c.18 0 .24-.06.24-.2v-1.76h-3.69v-.64H456V125h.35a7.61 7.61 0 001.29-.81h-3.8v-.61h4.63l.45.33a8.3 8.3 0 01-2.24 1.56v.23h3.71zm-7.25-2.24h-.65v-2h1.41a7.79 7.79 0 00-.78-1.15l.57-.26a6.24 6.24 0 01.89 1.26l-.32.15h1.88a5.14 5.14 0 00-.68-1.34l.6-.22a5.72 5.72 0 01.75 1.41l-.4.15h1.63a9.9 9.9 0 001-1.46l.71.24c-.29.41-.63.85-.94 1.22h1.42v2h-.66v-1.43h-6.42z"/><path class="cls-8" d="M397.92 141.89h70.16a2.83 2.83 0 012.83 2.83v16.73a2.83 2.83 0 01-2.83 2.83h-70.16a2.83 2.83 0 01-2.83-2.83v-16.73a2.84 2.84 0 012.83-2.83z"/><path class="cls-2" d="M408.89 150.77h-1.09l.38-.68h1.43v6.51h-.72zm11.87 5.53c0 .48-.14.72-.48.83a7.37 7.37 0 01-1.94.13 3.79 3.79 0 00-.29-.71h1.71c.21 0 .29-.07.29-.28v-1.84h-4.42a5.2 5.2 0 01-1.59 2.87 2.63 2.63 0 00-.5-.5 5.83 5.83 0 001.61-4.63v-2.82h5.61zm-.71-2.52v-1.55h-4.21a12.19 12.19 0 01-.1 1.55zm-4.21-3.73v1.53h4.21v-1.53zm12.59 4.65h.8v.66h-.8v1.24h-.72v-1.24h-3.34l4.06-5.63zm-.72 0v-2.88l-2.06 2.88zm11.02-5.18v7.64H438v-.56h-4.56v.6h-.7v-7.68zm-5.28.67v2.49H438v-2.49zm4.56 5.74v-2.57h-4.56v2.57zm7.35-6.48a7.89 7.89 0 003.82 7.25 3.3 3.3 0 00-.55.57 7.92 7.92 0 01-3.66-5.13 8.14 8.14 0 01-3.68 5.14 4.6 4.6 0 00-.61-.54c2-1.06 3.17-2.92 3.73-5.49l.4.06c-.06-.42-.1-.83-.12-1.18h-2.26v-.68zm12.83 5.24h-3.71v1.8c0 .4-.11.61-.44.71a7 7 0 01-1.7.11 2.76 2.76 0 00-.29-.66h1.51c.18 0 .23 0 .23-.19v-1.78h-3.68v-.64h3.68v-.66h.36a7 7 0 001.29-.81h-3.8V152h4.63l.45.33a8.2 8.2 0 01-2.24 1.55v.23h3.71zm-7.25-2.24h-.65v-2h1.41a7.79 7.79 0 00-.78-1.15l.57-.26a6.19 6.19 0 01.89 1.25l-.32.16h1.88a5.35 5.35 0 00-.68-1.35l.6-.22a5.72 5.72 0 01.75 1.41l-.4.16h1.63a10.53 10.53 0 001-1.47l.71.24c-.29.42-.63.86-.94 1.23H458v2h-.66V151h-6.42z"/></svg>