<svg id="レイヤー_1" data-name="レイヤー 1" xmlns="http://www.w3.org/2000/svg" viewBox="0 0 226 390"><defs><style>.cls-2{fill:#fff}.cls-3,.cls-4{fill:none}.cls-3{stroke:#231815;stroke-width:.28px}.cls-4{stroke:#d0121b;stroke-width:2.84px}.cls-5{fill:#231815}.cls-6{fill:#21b0b0}.cls-7,.cls-8{fill:#396b6e;stroke:#00babc;stroke-miterlimit:10;stroke-width:.5px}.cls-8{fill:#8f732c;stroke:#c69c6d}</style></defs><path fill="#29292e" d="M0 0h226v390H0z"/><path class="cls-2" d="M15.82 115.07H11v-.75a12 12 0 01-1.47.75l-.56-1a9.34 9.34 0 004-2.55h.9a9.91 9.91 0 004 2.55l-.57 1a12.26 12.26 0 01-1.39-.73zm1 .93v4h-6.9v-4zm-5.9.86v2.29h4.92v-2.29zm4.69-2.67a10.27 10.27 0 01-2.23-1.82 9.61 9.61 0 01-2.15 1.82zm7.39 2h-1v-2.13a13.29 13.29 0 01-3.44 1.85l-.39-.88a11.25 11.25 0 002.34-1 4.84 4.84 0 001.57-1.27h-3.84v-.9h8.67v.9H23.4a3.82 3.82 0 01-.36.46zm2.95.3V120h-6.8v-3.5zm-5.86 2.66H25v-1.8h-4.87zm3.79-6A9.1 9.1 0 0027 115l-.48.88a9.14 9.14 0 01-3.25-2.1zm4.76 6.58l-1-.52a15.5 15.5 0 001.58-4.65h-1.4v-1h1.59c.09-.55.13-1.11.17-1.67l1.08.08c-.06.53-.13 1.07-.21 1.59h.89a1.79 1.79 0 011.37.45 3.08 3.08 0 01.5 2 6.19 6.19 0 01-.6 3 1.49 1.49 0 01-1.36.61 4.63 4.63 0 01-1.05-.12l-.06-1a6 6 0 00.92.13c.57 0 .82-.33 1-.85a8.77 8.77 0 00.23-2c0-.72-.07-1.27-.95-1.26h-1a19.48 19.48 0 01-1.7 5.21zm6.73-2.67l-1.07.15a5.76 5.76 0 00-1.37-3.64l.71-.51a6.82 6.82 0 011.73 4zm-1.08-5.19a8 8 0 011.11 1.64l-.61.43a7.87 7.87 0 00-1.06-1.67zm1.07-.66a8.62 8.62 0 011.1 1.65l-.59.43a8.87 8.87 0 00-1.07-1.68zm6.55 1.79c-1.5 0-2.19.94-2.29 2.58a2.4 2.4 0 011.8-.79 2.15 2.15 0 012.26 2.3 2.41 2.41 0 01-2.54 2.51c-1.68 0-2.69-1.25-2.69-3.56 0-2.48 1.19-4 3.48-4a3.79 3.79 0 011.21.17l-.15 1a2.54 2.54 0 00-1.08-.21zm-2.3 3.44c.09 1.48.61 2.2 1.52 2.2a1.37 1.37 0 001.37-1.54 1.24 1.24 0 00-1.36-1.4 1.88 1.88 0 00-1.53.72zm13.91 2.84a.83.83 0 01-.88.92h-1.8l-.14-1h1.52c.21 0 .29-.1.29-.31v-1.72H48a5.4 5.4 0 01-1.18 3l-.89-.72a5.45 5.45 0 001.12-3.74v-3.82h6.47zM48.05 114h4.46v-1.2h-4.46zm0 2.23h4.46v-1.35h-4.46zm11.2-2.65a6.51 6.51 0 01-1.53 1.06l-.49-.84a8.54 8.54 0 002.25-1.65h.88v7.3h-1.11zM71.84 112v8h-7.13v-8zm-1 3.47v-2.52h-5.1v2.52zM65.72 119h5.1v-2.62h-5.1zm9.65-6.82a19.8 19.8 0 00-.4 4.2 16.29 16.29 0 00.27 3.27l-1.09.08a18.76 18.76 0 01-.24-3.18 23 23 0 01.37-4.45zm2.36 4a2.22 2.22 0 00-.46 1.18c0 .87 1.17.87 1.78.87a19.17 19.17 0 002.14-.11v1.07c-.59 0-1.18.08-1.78.08-1.26 0-3.1-.09-3.1-1.79a3.23 3.23 0 01.47-1.56zM81 112.8v1h-4.41v-1zm9.24-.48l.73.43a11.61 11.61 0 01-1.24 1.25c.47.25.92.47 1.41.68l-.38.86c-.45-.21-.9-.43-1.33-.67v.61h-1.19v1h2.57v.87h-2.57v1.48c0 .18.08.22.25.22h1.19c.38 0 .4-.26.45-1.1l.93.12a5.39 5.39 0 01-.29 1.51.71.71 0 01-.72.37h-1.92c-.44 0-.82-.11-.82-.63v-2h-1.44a3.57 3.57 0 01-3 2.76l-.46-.93a3.39 3.39 0 001.71-.63 1.86 1.86 0 00.83-1.2H82.6v-.87H85v-1h-1V115a13.07 13.07 0 01-1.23.65l-.46-.87a8.6 8.6 0 001.6-.74 13.6 13.6 0 00-1.09-.92l.53-.47h-.09v-.8h4a5 5 0 00.62.81 10.61 10.61 0 001.06-1.06l.74.44a13.47 13.47 0 01-1.19 1.2 6.55 6.55 0 00.53.39 11.64 11.64 0 001.22-1.31zm-4.6.3h-2.08a13 13 0 011.09.87 6.3 6.3 0 00.99-.87zm1 0a9.5 9.5 0 01-2.21 2H89a9.46 9.46 0 01-2.32-1.97zm-.74 2.87v1h1.37v-1zm8.64 1.81v1.7c.81-.14 1.61-.31 2.4-.49v.84a42.6 42.6 0 01-4.65.8l-.19-.87 1.52-.16v-1.32a13.25 13.25 0 01-1.8.72l-.37-.91a7.87 7.87 0 003.32-1.61h-3.2v-.81h3.89v-.66h-3.24v-.78h3.24v-.6h-3.69v-.81h3.69v-.75h.93v.75H100v.81h-3.61v.6h3.2v.78h-3.2v.66h3.85v.81h-3.42a5.58 5.58 0 00.72 1.34 9.35 9.35 0 001.54-1.25l.69.68a14.13 14.13 0 01-1.66 1.23 5.86 5.86 0 002.22 1.45l-.55.83a6.84 6.84 0 01-3.87-4.21 7.72 7.72 0 01-1.37 1.23zm13.29-.68l-.9.58a10.22 10.22 0 01-1.6-2.84h-3.99v-1H105c-.13-.41-.26-1-.35-1.43l1.09-.08a10.68 10.68 0 00.31 1.47 17.1 17.1 0 002.67-.34l.19 1a15.32 15.32 0 01-2.52.29 8 8 0 001.44 2.35zm-4.14-.1a1.39 1.39 0 00-.92 1.13c0 1 1.44 1.09 2.62 1.09a18.81 18.81 0 002.49-.15v1c-.79.07-1.59.09-2.39.09a4.85 4.85 0 01-3.19-.76 1.67 1.67 0 01-.56-1.27 2.15 2.15 0 011.41-1.87zm6.82-2.15v-1h1.59V112h1.07c-.06.67-.06 1.35-.07 2a4 4 0 012.77-1.45 1.32 1.32 0 011.21.7 2 2 0 01.18.89v.52l-.06 1.37v1.38c0 .69 0 1 1.18 1h.17l-.27 1a3.4 3.4 0 01-1.45-.26c-.66-.31-.7-1-.7-1.65s0-1 .06-1.52l.07-1.35v-.25c0-.25 0-.85-.63-.85-.9 0-2 1-2.5 1.7v4.47h-1v-3.08a9.39 9.39 0 01-1.24 1.77l-.57-1a8.07 8.07 0 001.83-2.46v-.64zm10.98 2.56a21.25 21.25 0 01-.9 2.94l-1-.34a21 21 0 001.52-5.48h-1.28v-1h1.41c0-.39.07-.78.1-1.17h1.1c0 .38-.1.75-.14 1.13h2.37v1h-2.57c-.18.99-.37 1.99-.61 2.92zm2.52.28a1.41 1.41 0 00-.3.75c0 .71 1 .76 2 .76.55 0 1.18 0 1.73-.08v1h-1.72a5 5 0 01-2.25-.35 1.38 1.38 0 01-.73-1.23 2.26 2.26 0 01.45-1.25zm2.7-2.85h.54v1h-1a7 7 0 00-2.47.39l-.35-.88a8.13 8.13 0 013.28-.51zm4.29-.93a8.3 8.3 0 00-.27 2.37 5.08 5.08 0 013-1 2.77 2.77 0 011.9.63 2.16 2.16 0 01.63 1.54 2.28 2.28 0 01-1.21 2.17 6.34 6.34 0 01-3 .59 12.87 12.87 0 01-1.75-.12l-.11-1a11.89 11.89 0 001.79.14 4.16 4.16 0 002.85-.79 1.46 1.46 0 00.33-1c0-.92-.72-1.28-1.55-1.28a3.87 3.87 0 00-2.91 1.23v.19h-1c0-.86 0-1.74.08-2.6a9.37 9.37 0 01.18-1.2zm4.13-1l-.28 1.09a11.88 11.88 0 00-3.79-.7l.19-1a15.43 15.43 0 013.88.62zm3.78 2.7a.76.76 0 010 1.51.76.76 0 110-1.51zm3.06 0a.76.76 0 11-.75.76.75.75 0 01.78-.76zm3.07 0a.76.76 0 110 1.51.76.76 0 010-1.51zM8.9 134.24v77.96h51.45l6.94-7.09v-70.87H8.9z"/><path class="cls-3" d="M8.9 134.24v77.96h51.45l6.94-7.09v-70.87H8.9z"/><path class="cls-4" d="M38.1 194.34a15.1 15.1 0 10-15.1-15.1 15.1 15.1 0 0015.1 15.1z"/><path class="cls-2" d="M23.48 223.42c-1.74 0-2.56 1.21-2.61 3.19a2.63 2.63 0 012.06-1 2.06 2.06 0 012.19 2.19 2.27 2.27 0 01-2.34 2.41c-1.56 0-2.49-1.22-2.49-3.44 0-2.38 1.08-3.89 3.23-3.89a3.19 3.19 0 011.09.17l-.07.54a2.72 2.72 0 00-1.06-.17zm-2.6 3.73c.08 1.67.76 2.57 1.92 2.57a1.72 1.72 0 001.73-1.89 1.56 1.56 0 00-1.71-1.69 2.36 2.36 0 00-1.94 1.01zM35.81 230a.78.78 0 01-.16.59.9.9 0 01-.71.24H33.4l-.1-.55H35c.3 0 .3-.15.3-.33v-2.34h-5.23a5.26 5.26 0 01-1.21 3.26l-.46-.33a5 5 0 001.17-3.54v-4.38h6.24zm-5.71-5.08h5.2v-1.77h-5.2zm0 2.25h5.2v-1.78h-5.2zm11.96-3.35a7.49 7.49 0 01-1.8 1.27l-.24-.45a7.48 7.48 0 002.15-1.64h.46v7.07h-.57zm12.39-.98v7.8h-6.83v-7.8zm-.53 3.59v-3.11h-5.77v3.11zm-5.77 3.74h5.77v-3.26h-5.77zm104.39-6.98a21 21 0 00-.16 2.51 10.26 10.26 0 00.27 2.72 2.22 2.22 0 00.42.84.87.87 0 00.62.26 1.1 1.1 0 00.84-.51 6.51 6.51 0 00.88-1.67l.46.24a5.67 5.67 0 01-1.25 2.12 1.44 1.44 0 01-1 .44c-.95 0-1.36-.88-1.55-1.68a12.27 12.27 0 01-.26-2.77c0-.86.05-1.7.12-2.55zm6.74 5.24v.8h-.62v-1a5.24 5.24 0 00-1.72-4.41l.41-.37c1.65 1.24 1.93 3.07 1.93 4.98zm9.21-4.43v.52H166v1.68a5.11 5.11 0 01.2 1.41 2.48 2.48 0 01-1.64 2.54 5.53 5.53 0 01-2 .4l-.17-.54h.12a3.8 3.8 0 002.69-.85 2.47 2.47 0 00.61-1.51 1.59 1.59 0 01-.68.83 2 2 0 01-1 .3 1.68 1.68 0 01-1.73-1.78 1.79 1.79 0 011.91-1.88 1.5 1.5 0 011.18.47v-1.07h-4.73V224h4.72v-1.3h.52v1.3zm-4.19 1.63a1.24 1.24 0 00-1.33 1.31 1.2 1.2 0 001.19 1.33 1.27 1.27 0 001.34-1.27v-.44a1.14 1.14 0 00-1.2-.96zm2.54-3.73a9.35 9.35 0 011.1 1.56l-.47.31a8 8 0 00-1.05-1.56zm1.52-.06a9.45 9.45 0 011.07 1.57l-.48.31a9.07 9.07 0 00-1-1.58zm1.74 2.91v-.54h1.66v-1.51h.58c-.08.8-.08 1.61-.08 2.42a4.7 4.7 0 013.16-1.86 1.22 1.22 0 011 .56 1.54 1.54 0 01.2.84v.57l-.07 1.25c0 .74-.08 1.3-.08 1.71 0 .72 0 1 .54 1.2a3 3 0 00.9.1l-.19.53a2.93 2.93 0 01-1.21-.23c-.56-.27-.6-.87-.6-1.41s.06-1.3.09-2l.08-1.26v-.35a1.31 1.31 0 00-.16-.75.77.77 0 00-.62-.29c-1.14 0-2.38 1.24-3.07 2v4.56h-.56v-3.72a9.13 9.13 0 01-1.45 2.15l-.41-.48a7.09 7.09 0 001.87-2.83v-.78zm9.68 5.58l-.54-.22a23.42 23.42 0 001.63-5.22h-1.56v-.52H181c.09-.57.17-1.14.25-1.71h.61c-.1.55-.2 1.12-.3 1.68h1.12a1.94 1.94 0 011.49.41 2.53 2.53 0 01.51 1.79 8.24 8.24 0 01-.45 2.84 1.4 1.4 0 01-1.53.9 10.9 10.9 0 01-1.14-.07v-.58a5.55 5.55 0 001.07.11 1 1 0 001.06-.57 7.06 7.06 0 00.42-2.58c0-1.7-.6-1.75-1.61-1.75h-1a27.66 27.66 0 01-1.72 5.49zm7.31-3l-.6.11a5.84 5.84 0 00-1.42-3.63l.44-.27a5.92 5.92 0 011.58 3.8zm2.63-1.33v2.65a1.25 1.25 0 00.9 1.25 5.35 5.35 0 001.6.25h4.36l-.09.48h-4.36a5.05 5.05 0 01-1.59-.27 2.12 2.12 0 01-1-.77 11.18 11.18 0 01-1.23 1.25l-.33-.44a6.73 6.73 0 001.23-1.1v-2.8h-1.14v-.5zm.28-2.12l-.37.33a8.88 8.88 0 00-1.38-1.36l.35-.37a7.73 7.73 0 011.4 1.4zm2.87-1.34V224h-2v.73c0 .19 0 .2.15.2h1.42c.13 0 .17 0 .2-.16a3.2 3.2 0 00.09-.48l.43.13a1.76 1.76 0 01-.14.66c-.1.21-.29.26-.58.26H191c-.32 0-.57-.13-.57-.49v-1.28h2V223h-2.2v-.42zm3.62 5.66h-6.2v-.41h1.64v-1h-1.44v-.42h1.44v-.67h.5v.67h1.8v-.67h.49v.67h1.56v.42h-1.56v1h1.77zm-5.62 1.5l-.3-.39a6.39 6.39 0 001.68-.87l.35.34a5.65 5.65 0 01-1.73.92zm1.56-2.93v1h1.8v-1zm3.53-4.23V224h-2v.71c0 .2.09.22.16.22h1.51c.2 0 .26-.05.3-.2s0-.25.06-.48l.44.13a1.52 1.52 0 01-.11.65.6.6 0 01-.61.31H194c-.43 0-.57-.15-.57-.56v-1.21h2V223h-2.17v-.42zm-1.88 6.3l.32-.36a5.24 5.24 0 002 .88l-.27.44a5.46 5.46 0 01-2.05-.96zm6.32-2.53v.49c-.39.18-.78.34-1.18.51v2.79c0 .51-.14.7-.67.7h-.88l-.13-.52h.88c.3 0 .31-.07.31-.27v-2.51c-.47.19-.94.37-1.42.52l-.1-.48c.51-.16 1-.34 1.52-.54v-2.44h-1.49v-.45h1.49v-1.75h.49v1.75h1.18v.45h-1.18v2.25c.42-.14.78-.31 1.18-.5zm5-3.65v3.51h-1.92a5.16 5.16 0 002.36 4.13l-.33.45a6.1 6.1 0 01-2.54-4.58h-1.65v.29a6.58 6.58 0 01-1.29 4.3l-.34-.52a5.79 5.79 0 001.13-3.79v-3.79zm-4.08.45v2.59h3.56v-2.59z"/><path class="cls-5" d="M35.23 149.51H30.4v-.75a10.71 10.71 0 01-1.47.75l-.56-1a9.25 9.25 0 003.95-2.51h.91a9.84 9.84 0 004 2.55l-.57 1a10.84 10.84 0 01-1.39-.73zm1 .93v4h-6.9v-4zm-5.89.86v2.29h4.92v-2.29zm4.66-2.67a10.27 10.27 0 01-2.23-1.82 9.36 9.36 0 01-2.15 1.82zm6.11 2.49l-.5.73a6.43 6.43 0 01-.73-1.37v4.16H39v-4.33a9 9 0 01-1.13 2.36l-.36-1.21a8.69 8.69 0 001.49-2.88h-1.33v-.89H39V146h.89v1.7h.92v.89h-.92v.51a6.81 6.81 0 001.22 2.02zm5.37-1.12l-.42.9a9.61 9.61 0 01-2.29-1.14 10.86 10.86 0 01-2.48 1.24l-.43-.8a7.13 7.13 0 002.2-1 5 5 0 01-1-1.08 6.62 6.62 0 01-.63.45l-.53-.79a4.23 4.23 0 001.78-1.8l1 .13c-.11.23-.19.38-.31.59h2.61v.83a6 6 0 01-1.41 1.64 8.51 8.51 0 001.91.83zm-.72 4.47h-4.28V151h4.28zm-3.38-2.61v1.72h2.47v-1.72zm2.45-4.31h-2.16a4.63 4.63 0 001.11 1.14 4.34 4.34 0 001.05-1.15z"/><path class="cls-3" d="M67.44 205.11h-7.09v7.09"/><path class="cls-6" d="M125.07 145.22l-8.24-4.76v3.04H84.15v3.44h32.68v3.04l8.24-4.76zm0 28.39l-8.24-4.76v3.04H84.15v3.45h32.68v3.04l8.24-4.77zm0 28.4l-8.24-4.76v3.03H84.15v3.45h32.68v3.04l8.24-4.76z"/><rect class="cls-7" x="141.43" y="134.02" width="75.8" height="22.39" rx="2.84"/><path class="cls-2" d="M157.15 142.88h-3.56v-.66h4.78l-4.37 6.67-.57-.38zm10.43 5.56c0 .48-.14.72-.48.83a7.37 7.37 0 01-1.94.13 3.32 3.32 0 00-.29-.71h1.72c.22 0 .28-.08.28-.28v-1.84h-4.42a5.19 5.19 0 01-1.58 2.86 3 3 0 00-.51-.49 5.83 5.83 0 001.61-4.63v-2.82h5.61zm-.71-2.52v-1.55h-4.21a12.3 12.3 0 01-.1 1.55zm-4.21-3.73v1.52h4.21v-1.52zm12.34.29l-1.5 2.08a1.79 1.79 0 01.57-.09 2.06 2.06 0 012.11 2.15 2.15 2.15 0 01-2.23 2.23 2.17 2.17 0 01-2.26-2.21 2.62 2.62 0 01.53-1.5l2.23-3.07zm.47 4.16a1.53 1.53 0 10-1.53 1.55 1.48 1.48 0 001.55-1.55zm10.28-4.98v7.64H185v-.56h-4.57v.59h-.69v-7.67zm-5.29.67v2.49H185v-2.49zm4.57 5.73v-2.57h-4.57v2.57zm7.34-6.47a7.9 7.9 0 003.83 7.25 3 3 0 00-.56.57 8 8 0 01-3.65-5.13 8.18 8.18 0 01-3.68 5.14 4.19 4.19 0 00-.62-.55c2-1.06 3.17-2.91 3.73-5.49l.41.07c-.06-.43-.1-.83-.12-1.18h-2.27v-.68zm12.84 5.24h-3.72v1.79c0 .41-.11.61-.44.71a6.39 6.39 0 01-1.69.11 3.4 3.4 0 00-.29-.65h1.5c.17 0 .24-.06.24-.19v-1.78h-3.68v-.64h3.68v-.66h.35a8.13 8.13 0 001.3-.81h-3.8v-.61h4.63l.44.33a8.3 8.3 0 01-2.24 1.56v.23h3.72zm-7.21-2.24h-.66v-2h1.41a7.69 7.69 0 00-.77-1.15l.57-.26a6 6 0 01.88 1.26l-.31.15H201a5.65 5.65 0 00-.68-1.34l.6-.22a5.66 5.66 0 01.74 1.41l-.39.15h1.63a9.81 9.81 0 001-1.46l.71.24a12.72 12.72 0 01-.94 1.22H205v2h-.66v-1.43H198z"/><path class="cls-8" d="M144.25 162.42h70.16a2.83 2.83 0 012.83 2.83V182a2.83 2.83 0 01-2.83 2.83h-70.16a2.84 2.84 0 01-2.84-2.84v-16.74a2.84 2.84 0 012.84-2.83z"/><path class="cls-2" d="M152.64 171.3h-1.1l.39-.68h1.42v6.51h-.71zm4.05 4.97a4.2 4.2 0 01-.65-2.39 4.26 4.26 0 01.65-2.4 1.92 1.92 0 013.34 0 4.26 4.26 0 01.65 2.4 4.2 4.2 0 01-.65 2.39 1.91 1.91 0 01-3.34 0zm.54-4.38a4.43 4.43 0 000 4 1.39 1.39 0 001.13.73 1.36 1.36 0 001.12-.73 4.34 4.34 0 000-4 1.34 1.34 0 00-1.12-.72 1.37 1.37 0 00-1.13.72zm12.99 4.94c0 .48-.13.72-.47.83a7.42 7.42 0 01-1.95.13 3.17 3.17 0 00-.28-.71h1.71c.21 0 .29-.07.29-.27V175h-4.43a5.25 5.25 0 01-1.58 2.87 2.42 2.42 0 00-.51-.5 5.78 5.78 0 001.61-4.62v-2.82h5.61zm-.7-2.52v-1.55h-4.21a10.66 10.66 0 01-.11 1.55zm-4.21-3.73v1.53h4.21v-1.53zm12.69.7h-2.08l-.42 1.41a1.68 1.68 0 01.41 0 2.11 2.11 0 012.14 2.26 2.28 2.28 0 01-2.37 2.34 2.2 2.2 0 01-1.45-.51 2.64 2.64 0 01-.57-.66l.58-.41a1.47 1.47 0 00.44.53 1.6 1.6 0 001.05.39 1.62 1.62 0 001.6-1.67 1.55 1.55 0 00-1.6-1.61 2.15 2.15 0 00-1.26.45l.95-3.14H178zm9.66-1.23v7.64h-.72v-.56h-4.57v.6h-.69v-7.68zm-5.29.68v2.48h4.57v-2.48zm4.57 5.73v-2.57h-4.57v2.57zm7.34-6.46a7.89 7.89 0 003.82 7.25 3.72 3.72 0 00-.55.57 8 8 0 01-3.66-5.13 8.14 8.14 0 01-3.67 5.14 4.71 4.71 0 00-.62-.54c2-1.06 3.17-2.91 3.73-5.49l.41.06a11 11 0 01-.12-1.18h-2.27V170zm12.83 5.22h-3.71V177c0 .4-.11.61-.44.71a7 7 0 01-1.7.11 2.51 2.51 0 00-.28-.65h1.5c.19 0 .24-.05.24-.19v-1.78H199v-.63h3.69v-.67h.35a7.47 7.47 0 001.3-.81h-3.81v-.61h4.64l.44.33a8.3 8.3 0 01-2.24 1.56v.23h3.71zm-7.25-2.22h-.65v-2h1.41a7.79 7.79 0 00-.78-1.15l.58-.26a6.4 6.4 0 01.88 1.25l-.3.16h1.88a5.4 5.4 0 00-.69-1.35l.6-.22a5.4 5.4 0 01.75 1.41l-.4.16h1.63a10 10 0 001-1.47l.71.24c-.29.42-.63.86-.94 1.23H207v2h-.67v-1.42h-6.42z"/><path class="cls-7" d="M144.25 190.81h70.16a2.83 2.83 0 012.83 2.83v16.73a2.83 2.83 0 01-2.83 2.83h-70.16a2.83 2.83 0 01-2.83-2.83v-16.72a2.84 2.84 0 012.83-2.84z"/><path class="cls-2" d="M153 199.69h-1.1l.38-.68h1.43v6.51H153zm3.26 5.83l2.37-2.74c.17-.2.61-.72.77-.95a1.69 1.69 0 00.36-1 1.24 1.24 0 00-1.3-1.27 1.25 1.25 0 00-1.09.58 1.41 1.41 0 00-.22.77h-.72a2.13 2.13 0 01.49-1.35 2.05 2.05 0 013.56 1.28 2.32 2.32 0 01-.52 1.4c-.27.38-.62.78-.89 1.09l-1.36 1.53h2.76v.66zm13.97-.29c0 .48-.14.72-.48.83a7.42 7.42 0 01-1.95.13 2.83 2.83 0 00-.28-.71h1.71c.21 0 .29-.08.29-.28v-1.84h-4.43a5.19 5.19 0 01-1.58 2.86 2.69 2.69 0 00-.51-.5 5.78 5.78 0 001.61-4.62v-2.8h5.62zm-.71-2.53v-1.54h-4.21a10.62 10.62 0 01-.11 1.54zm-4.21-3.7v1.53h4.21V199zm12.05 4.62h.8v.67h-.8v1.23h-.72v-1.23h-3.34l4.06-5.64zm-.72 0v-2.87l-2.06 2.87zm10.65-5.17v7.63h-.72v-.56H182v.6h-.69v-7.67zm-5.29.67v2.49h4.57v-2.49zm4.57 5.73v-2.57H182v2.57zm7.34-6.48a7.88 7.88 0 003.82 7.25 3.72 3.72 0 00-.55.57 8 8 0 01-3.66-5.13 8.11 8.11 0 01-3.67 5.14 4.8 4.8 0 00-.62-.54c2-1.06 3.17-2.91 3.73-5.49l.41.06a10.81 10.81 0 01-.12-1.17H191v-.69zm12.83 5.24H203v1.8c0 .41-.11.61-.44.71a7 7 0 01-1.7.11 2.66 2.66 0 00-.28-.65h1.5c.17 0 .24-.06.24-.2v-1.78h-3.68v-.6h3.68v-.66h.35a8.13 8.13 0 001.3-.81h-3.81v-.61h4.64l.44.33a8.3 8.3 0 01-2.24 1.56v.19h3.71zm-7.25-2.23h-.65v-2h1.41a8.55 8.55 0 00-.77-1.15l.57-.26a5.79 5.79 0 01.88 1.26l-.31.15h1.88a5.47 5.47 0 00-.68-1.34l.6-.22a5.66 5.66 0 01.74 1.41l-.39.15h1.63a9.81 9.81 0 001-1.46l.71.23a14.75 14.75 0 01-.94 1.23h1.43v2h-.66V200h-6.43zM9.3 16.17L8.86 15a7.47 7.47 0 001.41-3.82l1 .07a14.55 14.55 0 01-.54 2.35v6.24h-.9V15.5c-.2.23-.36.5-.53.67zm5.21-2.66a11.32 11.32 0 01-.51 3.27 6.12 6.12 0 01-2.3 3l-.7-.72a5.16 5.16 0 001.91-2.15 9.22 9.22 0 00-1.09-.91c-.17.24-.31.39-.5.62l-.53-.92A5.25 5.25 0 0012 12.39h-.64v-.89h3.29v.89h-1.74a10.4 10.4 0 01-.15 1.12zm-2.29 1.71a12.17 12.17 0 011 .81 7.68 7.68 0 00.32-1.64h-1a8.36 8.36 0 01-.32.83zm3.61-3.51v6.22h-.89v-6.22zm1.55-.55V19c0 .58-.21.84-.8.84h-1.13l-.19-.91h1c.24 0 .24-.05.24-.23v-7.54zm4.52 1.69h1.35v1.47H21.9zm0 3.81h1.35v1.45H21.9zm10.44-5.19V12c0 3.23 1.07 5.28 3.95 6.84l-.68 1A7.91 7.91 0 0131.8 15a7.56 7.56 0 01-1.26 2.58A10.16 10.16 0 0128 19.76l-.66-.91A7.5 7.5 0 0030.4 16a6.9 6.9 0 00.91-3.5H28.8v-1zM43.85 15a9.91 9.91 0 01-2.35 1.48v.07h3.87v.9H41.5v1.65a.77.77 0 01-.75.77h-1.81l-.18-1h1.49c.25 0 .26-.12.26-.29v-1.16h-3.87v-.9h3.87v-.72h.4a4 4 0 001.37-.73h-4.11v-.86h5.68zm-6.31-3.46l.89-.34a5.31 5.31 0 01.69 1.39l-.21.08h1.85a8 8 0 00-.63-1.19l.87-.38a7.1 7.1 0 01.7 1.44l-.3.1h1.49a14 14 0 00.61-1.51l1.06.31a10.4 10.4 0 01-.61 1.2h1.17v2.11h-.93v-1.23h-6.37v1.23h-.93v-2.11h1.2a8.44 8.44 0 00-.55-1.13zm16.24.04v8h-7.13v-8zm-1 3.47v-2.52h-5.1v2.52zm-5.1 3.56h5.1V16h-5.1zm7.68-2.46l-.46-1.23a8.27 8.27 0 001.4-3.79l1 .11a15.25 15.25 0 01-.57 2.38v6.19h-.89v-4.26a6.8 6.8 0 01-.48.6zm1.92-3.55h.84v5.94h-.84zm2.41 2.83a4.9 4.9 0 01-.67.9l-.78-.52a4.57 4.57 0 001.16-2h-.93v-.87H62v-.64h-3.21v-.86H63l-.08 1.5h.88v.87h-4.39l.83.22a3.31 3.31 0 01-.17.56h3.41v.85h-2.13c0 .33-.07.67-.13 1h2.54v.86h-1.9a4 4 0 002 1.64l-.53.88a4.92 4.92 0 01-2.45-2.35 4.4 4.4 0 01-2.44 2.37l-.51-.84A3.64 3.64 0 0060 17.29h-1.53v-.86h1.83a4.88 4.88 0 00.12-1zm6.41 4.34h-.89V16.3a4.37 4.37 0 01-.63.59l-.45-.89a5.28 5.28 0 002-2.57h-1.82v-.88h.9v-1.38h.89v1.36h.9v.82a8.23 8.23 0 01-.91 1.77 8.59 8.59 0 001.18 1.08l-.42.73a6.13 6.13 0 01-.79-.74zm1.47-6.1h2V13h-2.26v-.8h2.28v-1h.88v1h1.23c-.26-.22-.51-.44-.78-.65l.7-.47a10.29 10.29 0 011 .75l-.54.37H73v.8h-2.53v.64h2.2v5.26c0 .54-.12.84-.72.84h-1l-.13-.84h.73c.18 0 .27 0 .27-.23v-1h-1.35v2.11h-.88v-2.12h-1.14v2.11h-.88v-5a4.15 4.15 0 01-.42.81l-.6-.38a5 5 0 00.49-.95l.53.25zm.88.76v.85h1.14v-.85zm0 1.57v.93h1.14V16zm2-1.57v.85h1.35v-.85zm0 1.57v.93h1.35V16zm4.25 3.33l-1-.52a15 15 0 001.58-4.65h-1.4v-1h1.6c.08-.55.13-1.11.16-1.67l1.08.08c0 .53-.13 1.07-.21 1.59h.89a1.81 1.81 0 011.38.45 3.08 3.08 0 01.49 2 6.19 6.19 0 01-.6 3 1.48 1.48 0 01-1.36.61 4.63 4.63 0 01-1-.12l-.05-1a5.66 5.66 0 00.92.13c.57 0 .82-.32 1-.85a8.77 8.77 0 00.24-2.05c0-.72-.08-1.27-.95-1.26h-1a19.48 19.48 0 01-1.77 5.26zm6.73-2.67l-1.07.16A5.81 5.81 0 0079 13.17l.71-.51a6.75 6.75 0 011.72 4zm-1.08-5.19a7.63 7.63 0 011.11 1.64l-.61.43a7.49 7.49 0 00-1.06-1.67zm1.07-.65a8.3 8.3 0 011.11 1.64l-.6.43a8 8 0 00-1.07-1.68zm2.18.52h1v6.13c.68-.23 1.8-.67 2.47-1l.19.88a39.69 39.69 0 01-4.36 1.69l-.17-1c.29-.08.58-.18.86-.27zm4.6 2.79l-.88.62a11 11 0 00-1.76-2.5l.74-.56a10.62 10.62 0 011.9 2.44zM91.49 19l-.82.84a12 12 0 00-1.41-2 6.17 6.17 0 01-3.17 2l-.52-.95a4.81 4.81 0 003.43-2.5 8 8 0 00.57-3.4v-1.58h1v1.64a8.75 8.75 0 01-.78 3.95 15 15 0 011.7 2zm9.1-7.55v1h-4v1.15a18.29 18.29 0 013.74 2.29l-.7 1a16.09 16.09 0 00-3-2.19v5.17h-1v-7.44H92v-1zm5.53 5.91h-3.41v-1l3.29-4.67h1.18v4.68h1v1h-1v1.69h-1.08zm0-1V13l-2.32 3.33zm12.15-4.78v8h-7.13v-8zm-1 3.47v-2.52h-5.1v2.52zm-5.1 3.56h5.1V16h-5.1zm7.58-6.08l-.19-.88a11.58 11.58 0 003-.47l.34.84a9.51 9.51 0 01-1 .27v1.16h1v.9h-1v.28a5 5 0 001.23 1.5l-.51.88a4.13 4.13 0 01-.72-1.15v3.95h-.9v-3.87a7.29 7.29 0 01-1.18 2.13l-.4-1.1a8.81 8.81 0 001.52-2.62h-1.33v-.9H121v-1c-.46.02-.85.06-1.25.08zM128 15.8h-2v1h1.82v.82H126v1h2.2v.87h-5.78v-.87h2.64v-1h-1.8v-.82h1.8v-1h-2V15H128zm0-1.62h-4.74v-2.7H128zm-3.83-1.89v1.09H127v-1.09zm8.89 6.03c1.81-.18 3-.95 3-2.92a2.54 2.54 0 00-1.06-2.22 2.81 2.81 0 00-1.42-.4 10.94 10.94 0 01-1.18 4.72 2 2 0 01-1.6 1.08 1.59 1.59 0 01-1.36-.92 4.17 4.17 0 01-.39-1.8 4 4 0 014.32-4.06 3.46 3.46 0 013.79 3.65 3.75 3.75 0 01-1.24 2.93 4.58 4.58 0 01-2.54.93zm-2.33-4.43a3.42 3.42 0 00-.67 2.07c0 .48.17 1.52.79 1.52s.88-.76 1-1.16a11.08 11.08 0 00.71-3.5 3 3 0 00-1.83 1.07zm9.63 3.9l-.22-.32a18.88 18.88 0 01-2.17.81l-.09-1c.36-.08.66-.18 1-.28v-3H138v-.91h.91v-1.92h.93v1.88h.69V14h-.69v2.75a7.4 7.4 0 00.7-.25v.42a3.69 3.69 0 001.51-1.26h-1.55v-.73h6.19v.73H143a3.39 3.39 0 01-.34.5h3.81a14.31 14.31 0 01-.3 3.14.89.89 0 01-.5.49 1.76 1.76 0 01-.38 0H144l-.19-.9H145c.27 0 .3-.12.35-.36s.11-1.27.12-1.67h-.44a5.89 5.89 0 01-2.94 3l-.56-.74a4.91 4.91 0 002.65-2.26h-.66a6.31 6.31 0 01-3.19 2.3l-.45-.68a6 6 0 002.73-1.62h-.74a5.1 5.1 0 01-1.51.93zm5.73-6.34v3H141v-3zm-4.27.69v.54h3.39v-.54zm0 1.13v.54h3.39v-.54zm12.18 1.4h-4.83v-.75a10.71 10.71 0 01-1.47.75l-.56-1a9.25 9.25 0 003.95-2.55h.91a9.84 9.84 0 004 2.55l-.57 1a10.84 10.84 0 01-1.39-.73zm1 .93v4h-6.86v-4zm-5.89.86v2.29H154v-2.29zm4.69-2.67a10.27 10.27 0 01-2.26-1.79 9.36 9.36 0 01-2.15 1.82z"/><path class="cls-7" d="M13 32.19h70.17A2.83 2.83 0 0186 35v16.75a2.84 2.84 0 01-2.84 2.84H13a2.84 2.84 0 01-2.84-2.84V35A2.84 2.84 0 0113 32.19z"/><path class="cls-2" d="M25.93 41.05h-3.57v-.66h4.79l-4.36 6.66-.56-.38zm10.43 5.55c0 .48-.14.72-.48.83a7.37 7.37 0 01-1.94.13 3.79 3.79 0 00-.29-.71h1.71c.21 0 .29-.07.29-.28v-1.82h-4.42a5.2 5.2 0 01-1.59 2.87 2.63 2.63 0 00-.5-.5 5.83 5.83 0 001.61-4.63v-2.81h5.61zm-.71-2.52v-1.55h-4.21a12.19 12.19 0 01-.1 1.55zm-4.21-3.73v1.53h4.21v-1.53zm12.35.29l-1.5 2.08a1.85 1.85 0 01.58-.09A2.06 2.06 0 0145 44.78a2.25 2.25 0 01-4.49 0 2.52 2.52 0 01.49-1.47l2.22-3.08zm.47 4.16a1.53 1.53 0 00-3.06 0 1.53 1.53 0 103.06 0zm10.27-4.98v7.64h-.72v-.56h-4.57v.6h-.69v-7.68zm-5.29.68V43h4.57v-2.5zm4.57 5.73v-2.58h-4.57v2.58zm7.34-6.48A7.89 7.89 0 0065 47a3.32 3.32 0 00-.55.57 8 8 0 01-3.66-5.13 8.16 8.16 0 01-3.67 5.14 4.71 4.71 0 00-.62-.54c2-1.06 3.17-2.92 3.73-5.49l.41.06a11 11 0 01-.12-1.18h-2.3v-.68zM74 45h-3.73v1.8c0 .4-.11.61-.44.71a7 7 0 01-1.7.11 2.73 2.73 0 00-.28-.66h1.5c.18 0 .24-.05.24-.19V45H65.9v-.63h3.69v-.67h.35a7.47 7.47 0 001.3-.81h-3.81v-.61h4.64l.44.33a8.05 8.05 0 01-2.24 1.55v.24H74zm-7.25-2.24h-.65v-2h1.41a7.79 7.79 0 00-.78-1.15l.58-.26a6.11 6.11 0 01.88 1.25l-.31.16h1.88a5.4 5.4 0 00-.69-1.35l.6-.22a5.4 5.4 0 01.75 1.41l-.4.16h1.63a10.53 10.53 0 001-1.47l.71.24c-.29.42-.63.86-.94 1.23h1.43v2h-.67v-1.44h-6.45z"/><path class="cls-8" d="M96.18 32.19h70.16a2.83 2.83 0 012.83 2.81v16.75a2.83 2.83 0 01-2.83 2.83H96.18a2.84 2.84 0 01-2.84-2.84V35a2.84 2.84 0 012.84-2.81z"/><path class="cls-2" d="M104.57 41.07h-1.1l.39-.68h1.42v6.51h-.71zm4.05 4.93a4.2 4.2 0 01-.65-2.39 4.26 4.26 0 01.65-2.4 1.92 1.92 0 013.34 0 4.26 4.26 0 01.65 2.4A4.2 4.2 0 01112 46a1.91 1.91 0 01-3.34 0zm.54-4.38a4.43 4.43 0 000 4 1.39 1.39 0 001.13.73 1.36 1.36 0 001.12-.73 4.34 4.34 0 000-4 1.34 1.34 0 00-1.12-.72 1.37 1.37 0 00-1.13.76zm12.99 4.98c0 .48-.13.72-.47.83a7.42 7.42 0 01-2 .13 3.17 3.17 0 00-.28-.71h1.71c.21 0 .29-.07.29-.27v-1.83H117a5.25 5.25 0 01-1.58 2.87 2.42 2.42 0 00-.51-.5 5.78 5.78 0 001.61-4.62v-2.82h5.61zm-.7-2.52v-1.55h-4.22a10.59 10.59 0 01-.1 1.55zm-4.22-3.73v1.53h4.22v-1.53zm12.66.7h-2.08l-.42 1.41a1.68 1.68 0 01.41 0 2.11 2.11 0 012.14 2.26 2.28 2.28 0 01-2.37 2.28 2.2 2.2 0 01-1.45-.51 2.64 2.64 0 01-.57-.66l.58-.41a1.36 1.36 0 00.44.52 1.56 1.56 0 001.05.4 1.62 1.62 0 001.6-1.67 1.55 1.55 0 00-1.6-1.61 2.15 2.15 0 00-1.26.45l1-3.14h2.58zm9.7-1.23v7.64h-.72v-.56h-4.57v.6h-.69v-7.68zm-5.29.68V43h4.57v-2.5zm4.57 5.73v-2.57h-4.57v2.57zm7.34-6.48A7.89 7.89 0 00150 47a3.72 3.72 0 00-.55.57 8 8 0 01-3.66-5.13 8.14 8.14 0 01-3.67 5.14 4.71 4.71 0 00-.62-.54c2-1.06 3.17-2.92 3.73-5.49l.41.06a8.9 8.9 0 01-.12-1.18h-2.27v-.68zM159 45h-3.71v1.8c0 .4-.11.61-.44.71a7 7 0 01-1.7.11 2.73 2.73 0 00-.28-.66h1.5c.18 0 .24-.05.24-.19V45H151v-.63h3.69v-.67h.31a7.47 7.47 0 001.3-.81h-3.81v-.61h4.65l.44.33a8.05 8.05 0 01-2.24 1.55v.24H159zm-7.25-2.24h-.65v-2h1.41a7.79 7.79 0 00-.78-1.15l.58-.26a6.4 6.4 0 01.88 1.25l-.31.16h1.88a5.4 5.4 0 00-.69-1.35l.6-.22a5.4 5.4 0 01.75 1.41l-.4.16h1.63a10 10 0 001-1.47l.71.24c-.29.42-.63.86-.94 1.23h1.43v2h-.67v-1.43h-6.42z"/><path class="cls-7" d="M13 62.82h70.18A2.83 2.83 0 0186 65.66v16.72a2.83 2.83 0 01-2.83 2.83H13a2.83 2.83 0 01-2.83-2.83V65.66A2.84 2.84 0 0113 62.82z"/><path class="cls-2" d="M21.78 71.7h-1.09l.38-.68h1.43v6.51h-.72zM25 77.53l2.38-2.74a12.16 12.16 0 00.76-1 1.65 1.65 0 00.37-1 1.24 1.24 0 00-1.31-1.27 1.27 1.27 0 00-1.09.58 1.53 1.53 0 00-.21.77h-.72a2.13 2.13 0 01.48-1.35 2 2 0 011.55-.66 1.92 1.92 0 012 1.94 2.26 2.26 0 01-.51 1.4c-.27.38-.63.78-.89 1.09l-1.36 1.53h2.75v.66zm14-.29c0 .48-.14.72-.48.83a7.37 7.37 0 01-1.94.13 3.32 3.32 0 00-.29-.71h1.72c.22 0 .28-.08.28-.28v-1.82h-4.42a5.19 5.19 0 01-1.58 2.86 3 3 0 00-.51-.49 5.83 5.83 0 001.61-4.63v-2.82H39zm-.71-2.52v-1.55h-4.21a12.3 12.3 0 01-.1 1.55zM34.08 71v1.53h4.21V71zm12.05 4.64h.8v.66h-.8v1.23h-.72V76.3h-3.34l4.06-5.64zm-.72 0v-2.88l-2.06 2.88zm10.65-5.18v7.64h-.72v-.56h-4.56v.59h-.7v-7.67zm-5.28.67v2.49h4.56v-2.49zm4.56 5.73v-2.57h-4.56v2.57zm7.35-6.47a7.89 7.89 0 003.82 7.25 3 3 0 00-.55.57 7.94 7.94 0 01-3.66-5.13 8.16 8.16 0 01-3.67 5.14 4.76 4.76 0 00-.62-.55c2-1.06 3.17-2.91 3.73-5.49l.4.07c-.06-.43-.1-.83-.12-1.18h-2.26v-.68zm12.83 5.24h-3.71v1.79c0 .41-.11.61-.44.71a7 7 0 01-1.7.11 2.84 2.84 0 00-.28-.65h1.5c.18 0 .24-.06.24-.19v-1.77h-3.69V75h3.69v-.66h.35a8.13 8.13 0 001.3-.81H69v-.61h4.63l.45.34a8.05 8.05 0 01-2.24 1.55V75h3.71zm-7.25-2.24h-.65v-2H69a7.79 7.79 0 00-.78-1.15l.57-.26a6.53 6.53 0 01.89 1.26l-.32.15h1.88a5.3 5.3 0 00-.65-1.39l.6-.22a5.72 5.72 0 01.75 1.41l-.4.15h1.63a9.9 9.9 0 001-1.46l.71.24c-.29.41-.63.85-.94 1.22h1.43v2h-.67V72h-6.43z"/><path class="cls-8" d="M96.18 62.71h70.16a2.83 2.83 0 012.83 2.83v16.72a2.83 2.83 0 01-2.83 2.83H96.18a2.83 2.83 0 01-2.83-2.83V65.54a2.84 2.84 0 012.83-2.83z"/><path class="cls-2" d="M107.16 71.59h-1.1l.38-.69h1.43v6.52h-.71zM119 77.12c0 .48-.13.72-.48.83a7.33 7.33 0 01-1.94.13 3.22 3.22 0 00-.29-.71h1.72c.21 0 .28-.07.28-.28v-1.82h-4.42a5.25 5.25 0 01-1.58 2.87 2.42 2.42 0 00-.51-.5 5.79 5.79 0 001.63-4.64v-2.81H119zm-.71-2.52v-1.55h-4.19a10.59 10.59 0 01-.1 1.55zm-4.21-3.73v1.53h4.21v-1.53zm12.62 4.65h.8v.66h-.8v1.24h-.7v-1.24h-3.34l4.06-5.63zm-.72 0v-2.88l-2.06 2.88zM137 70.34V78h-.72v-.56h-4.57V78H131v-7.66zm-5.29.67v2.49h4.57V71zm4.57 5.73v-2.57h-4.57v2.57zm7.34-6.47a7.89 7.89 0 003.82 7.25 3.32 3.32 0 00-.55.57 8 8 0 01-3.66-5.09 8.16 8.16 0 01-3.67 5.14 3.64 3.64 0 00-.62-.54c2-1.06 3.17-2.92 3.73-5.49l.41.06A11 11 0 01143 71h-2.27v-.68zm12.83 5.24h-3.71v1.8c0 .4-.11.6-.44.71a7 7 0 01-1.7.11 2.73 2.73 0 00-.28-.66h1.5c.17 0 .24 0 .24-.19v-1.77h-3.69v-.64h3.69v-.66h.35a7.47 7.47 0 001.3-.81h-3.81v-.61h4.64l.44.33a8.05 8.05 0 01-2.24 1.55v.23h3.71zm-7.25-2.24h-.65v-2H150a8.63 8.63 0 00-.77-1.16l.57-.25a5.75 5.75 0 01.88 1.25l-.31.16h1.88a5.4 5.4 0 00-.69-1.35l.6-.22a5.4 5.4 0 01.75 1.41l-.4.16h1.64a11.38 11.38 0 001-1.47l.71.24c-.29.41-.63.86-.94 1.23h1.43v2h-.67v-1.43h-6.48zM16.06 264.05h-4.83v-.75a10.71 10.71 0 01-1.47.75l-.56-1a9.25 9.25 0 004-2.55h.91a9.8 9.8 0 004 2.55l-.57 1a10.84 10.84 0 01-1.39-.73zm1 .93v4h-6.9v-4zm-5.9.87v2.28h4.92v-2.28zm4.69-2.68a10.27 10.27 0 01-2.23-1.82 9.36 9.36 0 01-2.15 1.82zm7.43 2h-1V263a13.29 13.29 0 01-3.44 1.85l-.39-.88a11.25 11.25 0 002.34-1 4.7 4.7 0 001.56-1.27h-3.9v-.9h8.67v.9h-3.48a3.82 3.82 0 01-.36.46zm2.95.3V269h-6.84v-3.5zm-5.86 2.66h4.88v-1.8h-4.88zm3.78-6a9.44 9.44 0 003.06 1.87l-.48.87a9.06 9.06 0 01-3.25-2.1zm4.73 6.58l-1-.52a15.5 15.5 0 001.58-4.65h-1.4v-1h1.59c.09-.56.13-1.12.17-1.68l1.08.08c-.06.53-.13 1.07-.21 1.6h.89A1.78 1.78 0 0133 263a3.08 3.08 0 01.5 2 6.17 6.17 0 01-.6 3 1.48 1.48 0 01-1.36.62 5.28 5.28 0 01-1-.12l-.06-1a5 5 0 00.92.13c.58 0 .82-.32 1-.85a8.68 8.68 0 00.23-2c0-.73-.07-1.28-1-1.27h-1a19.48 19.48 0 01-1.75 5.2zm6.73-2.71l-1.07.16a5.77 5.77 0 00-1.37-3.64l.71-.52a6.85 6.85 0 011.73 4zm-1.08-5.19a7.59 7.59 0 011.1 1.64l-.6.43a7.87 7.87 0 00-1.03-1.63zm1.07-.65a8.25 8.25 0 011.1 1.64l-.6.43a8.36 8.36 0 00-1.1-1.64zm5.33 2.41a7.16 7.16 0 01-1.53 1.06l-.5-.84a8.47 8.47 0 002.25-1.66H42v7.3h-1.07zm3.2 2.21c0-2.45 1-3.78 2.59-3.78s2.59 1.33 2.59 3.78-1 3.78-2.59 3.78-2.59-1.34-2.59-3.78zm4 0c0-1.91-.51-2.8-1.41-2.8s-1.41.89-1.41 2.8.52 2.8 1.41 2.8 1.41-.89 1.41-2.8zm10.96 3.48a.83.83 0 01-.88.92h-1.79l-.15-1h1.52c.21 0 .29-.1.29-.3v-1.73h-4.5a5.41 5.41 0 01-1.19 3l-.89-.72a5.4 5.4 0 001.12-3.74v-3.81h6.47zM53.62 263h4.46v-1.2h-4.46zm0 2.23h4.46v-1.35h-4.46zM65 262.57a7.16 7.16 0 01-1.53 1.06l-.5-.84a8.47 8.47 0 002.25-1.66h.89v7.3H65zM77.6 261v8h-7.14v-8zm-1 3.48v-2.53h-5.1v2.53zM71.48 268h5.1v-2.61h-5.1zm9.64-6.83a20.33 20.33 0 00-.39 4.2 15.49 15.49 0 00.27 3.26l-1.09.08a18.76 18.76 0 01-.24-3.18 23 23 0 01.37-4.45zm2.36 4a2.15 2.15 0 00-.45 1.18c0 .86 1.16.86 1.78.86a17 17 0 002.14-.11v1.07a17.54 17.54 0 01-1.78.08c-1.26 0-3.11-.09-3.11-1.78a3.24 3.24 0 01.48-1.57zm3.29-3.36v1h-4.42v-1zm9.23-.51l.72.43a10.76 10.76 0 01-1.23 1.3 15.12 15.12 0 001.41.67l-.38.87c-.45-.22-.9-.44-1.34-.68v.61H94v1h2.57v.87H94v1.48c0 .19.08.22.24.22h1.19c.39 0 .41-.25.45-1.1l.94.12a5.77 5.77 0 01-.29 1.51.73.73 0 01-.72.37h-1.93c-.43 0-.82-.1-.82-.63v-2h-1.43a3.57 3.57 0 01-3 2.76l-.46-.93a3.48 3.48 0 001.71-.62 2 2 0 00.83-1.21h-2.35v-.87h2.43v-1h-1.05V264a11.23 11.23 0 01-1.24.65l-.45-.86a9.7 9.7 0 001.6-.75c-.36-.32-.71-.63-1.09-.91l.52-.48H89v-.79h4a5.28 5.28 0 00.62.81 13.39 13.39 0 001.06-1.07l.74.44c-.35.41-.8.84-1.19 1.21a6.42 6.42 0 00.53.38A11.64 11.64 0 0096 261.3zm-4.6.3h-2.09a13.57 13.57 0 011.1.87 6.3 6.3 0 00.99-.87zm1 0a9.55 9.55 0 01-2.21 2h4.49a9.88 9.88 0 01-2.24-1.97zm-.74 2.87v1h1.36v-1zm8.64 1.81V268c.81-.14 1.61-.31 2.4-.49v.84a42.6 42.6 0 01-4.65.8l-.2-.87c.51-.05 1-.09 1.52-.16v-1.32a13.12 13.12 0 01-1.79.72l-.37-.91a7.87 7.87 0 003.32-1.68h-3.2v-.81h3.89v-.66H98v-.78h3.24v-.6h-3.71v-.81h3.69v-.75h.93v.75h3.65v.81h-3.65v.6h3.2v.78h-3.2v.66H106v.88h-3.42a5.4 5.4 0 00.72 1.34 9.25 9.25 0 001.54-1.25l.69.69a15.24 15.24 0 01-1.66 1.24 5.75 5.75 0 002.22 1.45l-.55.84a6.83 6.83 0 01-3.87-4.22 8.08 8.08 0 01-1.37 1.19zm13.29-.67l-.9.57a10.22 10.22 0 01-1.61-2.84h-3.98v-1l2.89.05h.78a13.56 13.56 0 01-.35-1.43l1.09-.08a9.15 9.15 0 00.31 1.47 16.12 16.12 0 002.67-.34l.19 1a15.31 15.31 0 01-2.53.28 8.33 8.33 0 001.44 2.32zm-4.15-.1c-.43.22-.91.58-.91 1.12 0 1 1.44 1.09 2.62 1.09a18.81 18.81 0 002.49-.15v1c-.8.08-1.6.1-2.39.1a4.84 4.84 0 01-3.19-.77 1.65 1.65 0 01-.56-1.27 2.13 2.13 0 011.41-1.86zm6.83-2.16v-1h1.58V261h1.07c0 .67 0 1.36-.06 2a4 4 0 012.76-1.45 1.33 1.33 0 011.22.7 2 2 0 01.18.89v.52l-.06 1.38v1.37c0 .69 0 1 1.18 1h.17l-.28 1a3.54 3.54 0 01-1.44-.26c-.67-.32-.7-1-.7-1.66s0-1 .06-1.52l.07-1.35v-.25c0-.25 0-.84-.62-.84-.9 0-2 1-2.5 1.69v4.47h-1v-3.08a9 9 0 01-1.25 1.77l-.56-1a8.15 8.15 0 001.83-2.45v-.65zm10.98 2.56a21.25 21.25 0 01-.9 2.94l-1-.34a21.07 21.07 0 001.52-5.47h-1.28v-1H127c0-.39.07-.78.1-1.16h1.1c-.05.38-.1.75-.14 1.13h2.37v1h-2.52c-.23.99-.42 1.99-.66 2.9zm2.52.28a1.44 1.44 0 00-.3.75c0 .71 1 .76 2 .76.55 0 1.18 0 1.73-.07v1h-1.72a4.93 4.93 0 01-2.25-.35 1.39 1.39 0 01-.74-1.24 2.28 2.28 0 01.46-1.25zm2.7-2.85h.53v1h-1a7 7 0 00-2.48.39l-.35-.87a8 8 0 013.3-.52zm4.29-.93a8.33 8.33 0 00-.27 2.38 5 5 0 013-1 2.75 2.75 0 011.9.63 2.13 2.13 0 01.64 1.54 2.28 2.28 0 01-1.21 2.17 6.34 6.34 0 01-3 .59 11.57 11.57 0 01-1.76-.12l-.11-1a12 12 0 001.8.15 4.13 4.13 0 002.85-.8 1.44 1.44 0 00.33-1c0-.93-.73-1.29-1.56-1.29a3.85 3.85 0 00-2.9 1.23v.19h-1c0-.87 0-1.75.07-2.61a9.67 9.67 0 01.19-1.2zm4.13-1l-.28 1.09a12.17 12.17 0 00-3.8-.7l.2-1a16 16 0 013.88.62zm3.77 2.7a.76.76 0 11-.76.76.75.75 0 01.76-.76zm3.07 0a.76.76 0 11-.75.76.75.75 0 01.75-.76zm3.07 0a.76.76 0 110 1.52.76.76 0 010-1.52zM9.14 283.23v77.95h51.45l6.94-7.09v-70.86H9.14z"/><path class="cls-3" d="M9.14 283.23v77.95h51.45l6.94-7.09v-70.86H9.14z"/><path class="cls-4" d="M38.34 343.32a15.1 15.1 0 10-15.1-15.09 15.1 15.1 0 0015.1 15.09z"/><path class="cls-2" d="M20.51 372.8a7.49 7.49 0 01-1.8 1.27l-.24-.44a7.7 7.7 0 002.15-1.63h.46v7.07h-.57zm3.54 2.75c0-2.34.91-3.65 2.4-3.65s2.41 1.31 2.41 3.65-.91 3.64-2.41 3.64-2.4-1.3-2.4-3.64zm4.22 0c0-2.05-.68-3.14-1.82-3.14s-1.81 1.09-1.81 3.14.68 3.14 1.81 3.14 1.82-1.08 1.82-3.14zm11.37 3.39a.76.76 0 01-.16.59.86.86 0 01-.71.24h-1.54l-.1-.55h1.7c.3 0 .3-.15.3-.33v-2.33h-5.22a5.32 5.32 0 01-1.22 3.25l-.46-.32A5.07 5.07 0 0033.4 376v-4.39h6.24zm-5.71-5.07h5.2v-1.78h-5.2zm0 2.25h5.2v-1.78h-5.2zm11.96-3.32a7.63 7.63 0 01-1.79 1.27l-.25-.44A7.7 7.7 0 0046 372h.47v7.07h-.58zm12.4-.98v7.81h-6.83v-7.81zm-.54 3.6v-3.12H52v3.12zM52 379.16h5.77v-3.27H52zM152.78 372a21 21 0 00-.16 2.51 10.38 10.38 0 00.27 2.73 2.29 2.29 0 00.42.84.9.9 0 00.62.25 1.12 1.12 0 00.84-.5 6.57 6.57 0 00.88-1.68l.46.25a5.55 5.55 0 01-1.25 2.11 1.4 1.4 0 01-1 .44c-1 0-1.36-.87-1.55-1.68a11.62 11.62 0 01-.26-2.77c0-.86.05-1.7.12-2.54zm6.73 5.25v.8h-.62v-1a5.25 5.25 0 00-1.72-4.42l.41-.37c1.63 1.28 1.93 3.1 1.93 5.02zm9.22-4.43v.51h-2.46V375a5.58 5.58 0 01.2 1.41 2.47 2.47 0 01-1.64 2.54 5.75 5.75 0 01-2 .41l-.17-.54h.12a3.8 3.8 0 002.69-.85 2.47 2.47 0 00.61-1.51 1.67 1.67 0 01-.68.83 2 2 0 01-1 .29 1.68 1.68 0 01-1.68-1.78 1.8 1.8 0 011.91-1.88 1.5 1.5 0 011.18.47v-1.07H161v-.51h4.72v-1.28h.57v1.28zm-4.19 1.63a1.24 1.24 0 00-1.33 1.31 1.19 1.19 0 001.18 1.32 1.27 1.27 0 001.35-1.24v-.44a1.14 1.14 0 00-1.2-.95zm2.54-3.74a9.35 9.35 0 011.1 1.56l-.47.32a8.2 8.2 0 00-1.05-1.56zm1.52-.06a10 10 0 011.07 1.58l-.48.3a8.63 8.63 0 00-1-1.57zm1.74 2.95v-.54H172v-1.52h.58c-.08.81-.08 1.62-.08 2.43a4.67 4.67 0 013.15-1.86 1.2 1.2 0 011 .56 1.52 1.52 0 01.2.84v.57l-.07 1.24c-.05.74-.08 1.3-.08 1.72 0 .72 0 1 .54 1.2a3 3 0 00.9.1l-.19.52a2.78 2.78 0 01-1.21-.23c-.56-.27-.6-.86-.6-1.41s.06-1.3.09-2l.08-1.27v-.34a1.27 1.27 0 00-.15-.75.75.75 0 00-.62-.3c-1.14 0-2.38 1.25-3.07 2.06v4.55h-.55c0-1.23 0-2.48.05-3.71a9.34 9.34 0 01-1.45 2.15l-.41-.48a7.09 7.09 0 001.87-2.83v-.79zm9.66 5.58l-.55-.23a22.86 22.86 0 001.64-5.21h-1.56v-.53h1.66c.09-.57.17-1.13.25-1.7h.6c-.09.56-.19 1.12-.29 1.68h1.11a1.92 1.92 0 011.5.42 2.51 2.51 0 01.51 1.78 8.49 8.49 0 01-.45 2.84 1.4 1.4 0 01-1.53.91 8.74 8.74 0 01-1.14-.08v-.58a4.86 4.86 0 001.07.11 1 1 0 001.06-.57 7 7 0 00.42-2.58c0-1.7-.6-1.75-1.61-1.75h-1a28.07 28.07 0 01-1.69 5.49zm7.31-3l-.6.11a5.81 5.81 0 00-1.42-3.62l.44-.28a5.92 5.92 0 011.6 3.79zm2.69-1.34v2.66a1.25 1.25 0 00.9 1.24 5.05 5.05 0 001.6.25h4.36l-.09.49h-4.36a4.8 4.8 0 01-1.59-.28 2 2 0 01-1-.76 12 12 0 01-1.23 1.24l-.33-.43a7.18 7.18 0 001.23-1.11v-2.8h-1.14v-.5zm.28-2.12l-.37.34a8.94 8.94 0 00-1.38-1.37l.34-.37a8.12 8.12 0 011.37 1.4zm2.87-1.33v1.49h-2v.74c0 .18.05.19.15.19h1.42c.13 0 .16 0 .2-.15a3.48 3.48 0 00.09-.48l.43.12a1.83 1.83 0 01-.14.67c-.1.2-.29.26-.58.26h-1.46c-.32 0-.57-.13-.57-.49v-1.28h2v-.66h-2.2v-.41zm3.62 5.66h-6.2v-.42h1.64v-1h-1.45v-.43h1.45v-.67h.5v.67h1.8v-.67h.49v.67h1.56v.43H195v1h1.77zm-5.62 1.49l-.3-.39a6.07 6.07 0 001.68-.86l.34.34a5.46 5.46 0 01-1.76.91zm1.56-2.92v1h1.8v-1zm3.53-4.23v1.49h-2v.72c0 .19.09.21.16.21h1.51c.2 0 .26 0 .29-.19a3 3 0 00.07-.49l.44.14a1.64 1.64 0 01-.11.64.59.59 0 01-.61.32h-1.64c-.43 0-.57-.15-.57-.57v-1.2h2v-.66h-2.17v-.41zm-1.88 6.29l.32-.36a5.45 5.45 0 002 .89l-.26.43a5.31 5.31 0 01-2.1-.96zm6.28-2.52v.49l-1.18.5V379c0 .5-.14.7-.67.7H198l-.13-.53h.88c.3 0 .31-.08.31-.28v-2.51c-.47.2-.94.37-1.42.53l-.1-.49c.51-.15 1-.34 1.52-.53v-2.45h-1.49V373H199v-1.75h.49V373h1.18v.45h-1.17v2.25l1.14-.54zm5-3.65V375h-1.92a5.17 5.17 0 002.36 4.13l-.33.45a6.13 6.13 0 01-2.54-4.58h-1.65v.28a6.59 6.59 0 01-1.29 4.31l-.34-.53a5.76 5.76 0 001.13-3.78v-3.79zm-4.08.45v2.59h3.56V372z"/><path class="cls-5" d="M35.47 298.49h-4.83v-.75a11.31 11.31 0 01-1.47.75l-.56-1a9.25 9.25 0 004-2.55h.91a9.74 9.74 0 004 2.55l-.57 1a10.84 10.84 0 01-1.39-.73zm1 .93v4h-6.9v-4zm-5.89.87v2.28h4.92v-2.28zm4.69-2.68a10.27 10.27 0 01-2.27-1.82 9.36 9.36 0 01-2.15 1.82zm6.08 2.49l-.5.73a6.43 6.43 0 01-.73-1.37v4.16h-.89v-4.33a9 9 0 01-1.13 2.36l-.36-1.21a8.59 8.59 0 001.45-2.88H37.9v-.89h1.33V295h.89v1.7H41v.89h-.92v.52a6.76 6.76 0 001.27 1.99zm5.37-1.1l-.42.9a9.61 9.61 0 01-2.3-1.17 10.86 10.86 0 01-2.47 1.27l-.43-.8a7.35 7.35 0 002.2-1 5.55 5.55 0 01-1-1.08c-.23.17-.39.29-.63.44l-.53-.78a4.26 4.26 0 001.75-1.78l1 .13a5.7 5.7 0 01-.32.6h2.62v.83a6.1 6.1 0 01-1.41 1.63 8.51 8.51 0 001.94.81zm-.72 4.44h-4.28V300H46zm-3.38-2.61v1.72h2.47v-1.72zm2.46-4.3h-2.17a4.42 4.42 0 001.09 1.15 4.68 4.68 0 001.08-1.15z"/><path class="cls-3" d="M67.68 354.09h-7.09v7.09"/><path class="cls-6" d="M124.83 294.2l-8.24-4.76v3.04H83.91v3.45h32.68v3.04l8.24-4.77zm0 28.4l-8.24-4.77v3.04H83.91v3.45h32.68v3.04l8.24-4.76z"/><path class="cls-7" d="M144 283h70.16a2.83 2.83 0 012.83 2.83v16.73a2.83 2.83 0 01-2.83 2.83H144a2.84 2.84 0 01-2.84-2.84v-16.71A2.84 2.84 0 01144 283z"/><path class="cls-2" d="M152.77 291.89h-1.1l.38-.68h1.43v6.51h-.71zm3.23 5.83l2.37-2.75c.17-.19.61-.71.77-1a1.69 1.69 0 00.36-1 1.23 1.23 0 00-1.3-1.27 1.25 1.25 0 00-1.09.57 1.43 1.43 0 00-.22.77h-.72a2.08 2.08 0 01.49-1.34 2 2 0 013.56 1.28 2.28 2.28 0 01-.52 1.39 11.59 11.59 0 01-.89 1.09l-1.36 1.53h2.76v.67zm14-.3c0 .48-.14.72-.48.83a7.42 7.42 0 01-1.95.13 3 3 0 00-.28-.71H169c.21 0 .29-.07.29-.28v-1.84h-4.43a5.25 5.25 0 01-1.58 2.87 2.42 2.42 0 00-.51-.5 5.8 5.8 0 001.62-4.63v-2.82H170zm-.71-2.52v-1.55h-4.21a12.3 12.3 0 01-.1 1.55zm-4.21-3.73v1.53h4.21v-1.53zm12.04 4.65h.8v.66h-.8v1.24h-.72v-1.24h-3.34l4.06-5.64zm-.72 0v-2.88l-2.06 2.88zm10.65-5.18v7.64h-.72v-.56h-4.57v.6h-.69v-7.68zm-5.29.68v2.48h4.57v-2.48zm4.57 5.72v-2.57h-4.57V297zm7.34-6.47a7.88 7.88 0 003.83 7.25 3 3 0 00-.56.57 7.94 7.94 0 01-3.65-5.13 8.21 8.21 0 01-3.68 5.14 4.14 4.14 0 00-.62-.54c2-1.06 3.17-2.92 3.73-5.5l.41.07a11.23 11.23 0 01-.12-1.18h-2.27v-.68zm12.84 5.24h-3.72v1.8c0 .4-.11.6-.44.71a6.91 6.91 0 01-1.69.11 3.23 3.23 0 00-.29-.66h1.5c.17 0 .24 0 .24-.19v-1.78h-3.68v-.64h3.68v-.66h.35a8.13 8.13 0 001.3-.81H200v-.61h4.63l.44.33a8.05 8.05 0 01-2.24 1.55v.23h3.72zm-7.25-2.24h-.66v-2h1.4a7.76 7.76 0 00-.77-1.16l.57-.25a5.75 5.75 0 01.88 1.25l-.31.16h1.88a5.7 5.7 0 00-.68-1.35l.6-.22a5.66 5.66 0 01.74 1.41l-.39.16h1.63a10.43 10.43 0 001-1.47l.71.24a14.75 14.75 0 01-.94 1.23h1.43v2h-.66v-1.43h-6.42z"/><path class="cls-8" d="M144 311.4h70.16a2.83 2.83 0 012.83 2.83V331a2.83 2.83 0 01-2.83 2.83H144a2.84 2.84 0 01-2.84-2.84v-16.76a2.84 2.84 0 012.84-2.83z"/><path class="cls-2" d="M155 320.28h-1.1l.38-.68h1.44v6.51H155zm11.85 5.54c0 .48-.13.72-.48.83a7.33 7.33 0 01-1.94.13 3.27 3.27 0 00-.28-.71h1.71c.21 0 .28-.07.28-.27V324h-4.42a5.18 5.18 0 01-1.58 2.87 2.42 2.42 0 00-.51-.5 5.78 5.78 0 001.61-4.62v-2.82h5.61zm-.71-2.53v-1.55h-4.21a10.59 10.59 0 01-.1 1.55zm-4.21-3.73v1.53h4.21v-1.53zm12.6 4.65h.8v.67h-.8v1.23h-.72v-1.23h-3.34l4.06-5.64zm-.72 0v-2.87l-2.06 2.87zm11.02-5.21v7.63h-.72v-.56h-4.57v.6h-.69V319zm-5.29.67v2.49h4.57v-2.49zm4.57 5.73v-2.57h-4.57v2.57zm7.34-6.4a7.88 7.88 0 003.82 7.25 3.39 3.39 0 00-.55.58 8 8 0 01-3.66-5.14 8.14 8.14 0 01-3.67 5.14 4.8 4.8 0 00-.62-.54c2-1.06 3.17-2.91 3.73-5.49l.41.06a11 11 0 01-.12-1.18h-2.27V319zm12.83 5.21h-3.71V326c0 .41-.11.61-.44.71a7 7 0 01-1.7.11 2.66 2.66 0 00-.28-.65h1.5c.17 0 .24-.06.24-.2v-1.77h-3.68v-.64h3.68v-.66h.35a8.13 8.13 0 001.3-.81h-3.81v-.61h4.64l.44.33a8.3 8.3 0 01-2.24 1.56v.23h3.71zM197 322h-.65v-2h1.41a8.55 8.55 0 00-.77-1.15l.57-.26a6 6 0 01.88 1.25l-.31.16H200a5.47 5.47 0 00-.68-1.34l.6-.23a6 6 0 01.74 1.41l-.4.16h1.64a9.39 9.39 0 001-1.47l.71.25c-.29.41-.63.85-.94 1.22h1.43v2h-.66v-1.43H197z"/></svg>