<svg width="835" height="391" xmlns="http://www.w3.org/2000/svg"><path d="M0 390.475l128.728-117.961-16.261 117.96H0zM273.749 101.69l-4.918 42.021h129.17l-16.703 128.36h-60.602l60.061 118.404H313.09L252.931 272.07l-14.442 118.404h-67.306l14.458-118.404H60.077l15.802-128.36h125.564l4.918-42.02H97.566L55.11 52.878h157.627L219.065 0h67.29l-6.311 52.879h97.55l42.455 48.811h-146.3zm-84.01 138.283l.443-4.51 1.82-16.271h-64.143l-2.295 20.78h64.175zm-58.716-44.285h64.044l.459-4.067 1.803-16.714h-64.077l-2.23 20.781zm192.41 23.504h-64.175l-1.803 16.27-.459 4.51h64.143l2.295-20.78zm-58.273-44.285l-2.246 16.714-.46 4.067h64.143l2.246-20.78H265.16zm499.96 97.164H647.703l-14.966 118.404h-66.339l14.9-118.404h-.442l-88.518 118.404h-68.224l88.518-118.404h-50.57l15.802-128.36h304.042l-16.786 128.36zM439.474 52.879H605.69L612.477 0h67.798l-6.787 52.879h118.745l42.456 48.811h-352.76L439.474 52.88zM714.55 178.975H536.58l-6.311 56.93h177.953l6.328-56.93zm-11.327 93.096l99.369 118.404H689.7l13.524-118.404z" fill="#FFF" fill-rule="nonzero" opacity=".1"/></svg>