<svg width="217" height="424" xmlns="http://www.w3.org/2000/svg"><g fill="#FFF" fill-rule="nonzero" opacity=".1"><path d="M0 201.04l66.31-60.73-8.37 60.73z"/><path d="M141 52.35h75.39l-21.87-25.13h-50.26L147.52 0h-34.67l-3.26 27.22h-81.2l21.87 25.13h56.07L103.78 74H39.09L31 140.07h64.63l-7.44 61h34.67l7.44-61 30.95 61h34.9l-31-61h31.18L205 74h-66.55L141 52.35zm-43 68.88l-.23 2.32h-33l1.17-10.7h33l-.94 8.38zm2.79-22.57l-.23 2.09h-33l1.16-10.7h33l-.93 8.61zm64.69 24.89h-33l.23-2.32.93-8.38h33l-1.16 10.7zm3.95-33.5l-1.16 10.7h-33l.23-2.09 1.16-8.61h32.77zM9.4 249.22h85.63L98.52 222h34.9l-3.49 27.22h61.19l21.87 25.13H31.27zM29.18 296L21 362.07h26.09L1.49 423h35.13l45.61-61h.23l-7.68 61H109l7.67-61h60.5l8.6-66H29.18zm118.66 47.47H56.17l3.25-29.32h91.68l-3.26 29.32z"/><path d="M145.28 362.07l51.19 60.97H138.3z"/></g></svg>
